<svg width="569" height="133" viewBox="0 0 569 133" fill="none" xmlns="http://www.w3.org/2000/svg">
<rect width="569" height="133" fill="white"/>
<path d="M74.4 70.268C74.4 70.476 74.324 70.652 74.172 70.796C74.02 70.932 73.844 71 73.644 71C73.428 71 73.248 70.932 73.104 70.796C72.968 70.652 72.9 70.476 72.9 70.268V63.332C72.9 63.124 72.972 62.952 73.116 62.816C73.26 62.672 73.444 62.6 73.668 62.6C73.868 62.6 74.04 62.672 74.184 62.816C74.328 62.952 74.4 63.124 74.4 63.332V70.268ZM79.5167 64.46C80.3327 64.46 80.8967 64.704 81.2087 65.192C81.5207 65.672 81.6767 66.34 81.6767 67.196V70.268C81.6767 70.476 81.6087 70.652 81.4727 70.796C81.3367 70.932 81.1647 71 80.9567 71C80.7487 71 80.5767 70.932 80.4407 70.796C80.3047 70.652 80.2367 70.476 80.2367 70.268V67.196C80.2367 66.756 80.1447 66.412 79.9607 66.164C79.7767 65.908 79.4607 65.78 79.0127 65.78C78.5487 65.78 78.1847 65.916 77.9207 66.188C77.6567 66.452 77.5247 66.788 77.5247 67.196V70.268C77.5247 70.476 77.4567 70.652 77.3207 70.796C77.1847 70.932 77.0127 71 76.8047 71C76.5967 71 76.4247 70.932 76.2887 70.796C76.1527 70.652 76.0847 70.476 76.0847 70.268V65.312C76.0847 65.104 76.1527 64.932 76.2887 64.796C76.4247 64.652 76.5967 64.58 76.8047 64.58C77.0127 64.58 77.1847 64.652 77.3207 64.796C77.4567 64.932 77.5247 65.104 77.5247 65.312V65.516C77.7407 65.228 78.0207 64.98 78.3647 64.772C78.7167 64.564 79.1007 64.46 79.5167 64.46ZM86.0291 64.46C86.7091 64.46 87.2571 64.568 87.6731 64.784C88.0891 64.992 88.2971 65.272 88.2971 65.624C88.2971 65.8 88.2451 65.956 88.1411 66.092C88.0371 66.22 87.9011 66.284 87.7331 66.284C87.6051 66.284 87.5011 66.268 87.4211 66.236C87.3411 66.196 87.2611 66.148 87.1811 66.092C87.1091 66.028 87.0371 65.976 86.9651 65.936C86.8851 65.896 86.7651 65.86 86.6051 65.828C86.4531 65.796 86.3291 65.78 86.2331 65.78C85.6331 65.78 85.1611 65.968 84.8171 66.344C84.4811 66.712 84.3131 67.196 84.3131 67.796C84.3131 68.372 84.4851 68.852 84.8291 69.236C85.1731 69.612 85.6131 69.8 86.1491 69.8C86.5411 69.8 86.8331 69.752 87.0251 69.656C87.0731 69.632 87.1371 69.592 87.2171 69.536C87.3051 69.472 87.3851 69.424 87.4571 69.392C87.5291 69.36 87.6171 69.344 87.7211 69.344C87.9211 69.344 88.0771 69.408 88.1891 69.536C88.3091 69.664 88.3691 69.828 88.3691 70.028C88.3691 70.22 88.2571 70.4 88.0331 70.568C87.8091 70.736 87.5131 70.872 87.1451 70.976C86.7771 71.072 86.3851 71.12 85.9691 71.12C85.3531 71.12 84.8091 70.976 84.3371 70.688C83.8731 70.4 83.5131 70.004 83.2571 69.5C83.0011 68.988 82.8731 68.42 82.8731 67.796C82.8731 67.148 83.0051 66.572 83.2691 66.068C83.5411 65.564 83.9171 65.172 84.3971 64.892C84.8771 64.604 85.4211 64.46 86.0291 64.46ZM92.7449 64.46C92.9849 64.46 93.1849 64.528 93.3449 64.664C93.5129 64.8 93.5969 64.96 93.5969 65.144C93.5969 65.392 93.5329 65.58 93.4049 65.708C93.2769 65.828 93.1249 65.888 92.9489 65.888C92.8289 65.888 92.6929 65.86 92.5409 65.804C92.5169 65.796 92.4609 65.78 92.3729 65.756C92.2929 65.732 92.2049 65.72 92.1089 65.72C91.9009 65.72 91.7009 65.784 91.5089 65.912C91.3169 66.04 91.1569 66.236 91.0289 66.5C90.9089 66.756 90.8489 67.064 90.8489 67.424V70.268C90.8489 70.476 90.7809 70.652 90.6449 70.796C90.5089 70.932 90.3369 71 90.1289 71C89.9209 71 89.7489 70.932 89.6129 70.796C89.4769 70.652 89.4089 70.476 89.4089 70.268V65.312C89.4089 65.104 89.4769 64.932 89.6129 64.796C89.7489 64.652 89.9209 64.58 90.1289 64.58C90.3369 64.58 90.5089 64.652 90.6449 64.796C90.7809 64.932 90.8489 65.104 90.8489 65.312V65.468C91.0329 65.14 91.2969 64.892 91.6409 64.724C91.9849 64.548 92.3529 64.46 92.7449 64.46ZM100.103 67.64C100.095 67.832 100.019 67.988 99.8745 68.108C99.7305 68.228 99.5625 68.288 99.3705 68.288H95.4105C95.5065 68.76 95.7265 69.132 96.0705 69.404C96.4145 69.668 96.8025 69.8 97.2345 69.8C97.5625 69.8 97.8185 69.772 98.0025 69.716C98.1865 69.652 98.3305 69.588 98.4345 69.524C98.5465 69.452 98.6225 69.404 98.6625 69.38C98.8065 69.308 98.9425 69.272 99.0705 69.272C99.2385 69.272 99.3825 69.332 99.5025 69.452C99.6225 69.572 99.6825 69.712 99.6825 69.872C99.6825 70.088 99.5705 70.284 99.3465 70.46C99.1225 70.644 98.8225 70.8 98.4465 70.928C98.0705 71.056 97.6905 71.12 97.3065 71.12C96.6345 71.12 96.0465 70.98 95.5425 70.7C95.0465 70.42 94.6625 70.036 94.3905 69.548C94.1185 69.052 93.9825 68.496 93.9825 67.88C93.9825 67.192 94.1265 66.588 94.4145 66.068C94.7025 65.548 95.0825 65.152 95.5545 64.88C96.0265 64.6 96.5305 64.46 97.0665 64.46C97.5945 64.46 98.0905 64.604 98.5545 64.892C99.0265 65.18 99.4025 65.568 99.6825 66.056C99.9625 66.544 100.103 67.072 100.103 67.64ZM97.0665 65.78C96.1385 65.78 95.5905 66.216 95.4225 67.088H98.5665V67.004C98.5345 66.668 98.3705 66.38 98.0745 66.14C97.7785 65.9 97.4425 65.78 97.0665 65.78ZM106.546 64.46C106.754 64.46 106.926 64.528 107.062 64.664C107.198 64.8 107.266 64.976 107.266 65.192V70.268C107.266 70.476 107.198 70.652 107.062 70.796C106.926 70.932 106.754 71 106.546 71C106.338 71 106.166 70.932 106.03 70.796C105.902 70.66 105.834 70.488 105.826 70.28C105.626 70.512 105.354 70.712 105.01 70.88C104.674 71.04 104.318 71.12 103.942 71.12C103.39 71.12 102.89 70.98 102.442 70.7C101.994 70.412 101.638 70.016 101.374 69.512C101.118 69.008 100.99 68.436 100.99 67.796C100.99 67.156 101.118 66.584 101.374 66.08C101.63 65.568 101.978 65.172 102.418 64.892C102.866 64.604 103.358 64.46 103.894 64.46C104.278 64.46 104.638 64.532 104.974 64.676C105.31 64.812 105.594 64.988 105.826 65.204V65.192C105.826 64.984 105.894 64.812 106.03 64.676C106.166 64.532 106.338 64.46 106.546 64.46ZM104.122 69.8C104.642 69.8 105.066 69.612 105.394 69.236C105.722 68.852 105.886 68.372 105.886 67.796C105.886 67.22 105.722 66.74 105.394 66.356C105.066 65.972 104.642 65.78 104.122 65.78C103.61 65.78 103.19 65.972 102.862 66.356C102.534 66.74 102.37 67.22 102.37 67.796C102.37 68.372 102.53 68.852 102.85 69.236C103.178 69.612 103.602 69.8 104.122 69.8ZM108.455 70.004C108.383 69.908 108.347 69.788 108.347 69.644C108.347 69.436 108.451 69.26 108.659 69.116C108.771 69.044 108.887 69.008 109.007 69.008C109.175 69.008 109.335 69.084 109.487 69.236C109.727 69.484 109.975 69.668 110.231 69.788C110.495 69.908 110.811 69.968 111.179 69.968C111.803 69.944 112.115 69.708 112.115 69.26C112.115 69.028 112.007 68.852 111.791 68.732C111.583 68.612 111.255 68.492 110.807 68.372C110.343 68.244 109.963 68.116 109.667 67.988C109.379 67.86 109.127 67.668 108.911 67.412C108.703 67.148 108.599 66.796 108.599 66.356C108.599 65.972 108.707 65.64 108.923 65.36C109.147 65.072 109.435 64.852 109.787 64.7C110.147 64.54 110.527 64.46 110.927 64.46C111.335 64.46 111.743 64.536 112.151 64.688C112.559 64.84 112.879 65.064 113.111 65.36C113.215 65.488 113.267 65.632 113.267 65.792C113.267 65.976 113.191 66.128 113.039 66.248C112.927 66.336 112.799 66.38 112.655 66.38C112.479 66.38 112.335 66.324 112.223 66.212C112.079 66.036 111.891 65.896 111.659 65.792C111.435 65.688 111.179 65.636 110.891 65.636C110.283 65.636 109.979 65.856 109.979 66.296C109.979 66.472 110.035 66.616 110.147 66.728C110.259 66.832 110.399 66.916 110.567 66.98C110.743 67.036 110.987 67.108 111.299 67.196C111.731 67.316 112.091 67.44 112.379 67.568C112.667 67.696 112.911 67.892 113.111 68.156C113.311 68.42 113.411 68.768 113.411 69.2C113.411 69.592 113.295 69.936 113.063 70.232C112.831 70.52 112.531 70.74 112.163 70.892C111.803 71.044 111.431 71.12 111.047 71.12C110.519 71.12 110.027 71.032 109.571 70.856C109.115 70.68 108.743 70.396 108.455 70.004ZM120.376 67.64C120.368 67.832 120.292 67.988 120.148 68.108C120.004 68.228 119.836 68.288 119.644 68.288H115.684C115.78 68.76 116 69.132 116.344 69.404C116.688 69.668 117.076 69.8 117.508 69.8C117.836 69.8 118.092 69.772 118.276 69.716C118.46 69.652 118.604 69.588 118.708 69.524C118.82 69.452 118.896 69.404 118.936 69.38C119.08 69.308 119.216 69.272 119.344 69.272C119.512 69.272 119.656 69.332 119.776 69.452C119.896 69.572 119.956 69.712 119.956 69.872C119.956 70.088 119.844 70.284 119.62 70.46C119.396 70.644 119.096 70.8 118.72 70.928C118.344 71.056 117.964 71.12 117.58 71.12C116.908 71.12 116.32 70.98 115.816 70.7C115.32 70.42 114.936 70.036 114.664 69.548C114.392 69.052 114.256 68.496 114.256 67.88C114.256 67.192 114.4 66.588 114.688 66.068C114.976 65.548 115.356 65.152 115.828 64.88C116.3 64.6 116.804 64.46 117.34 64.46C117.868 64.46 118.364 64.604 118.828 64.892C119.3 65.18 119.676 65.568 119.956 66.056C120.236 66.544 120.376 67.072 120.376 67.64ZM117.34 65.78C116.412 65.78 115.864 66.216 115.696 67.088H118.84V67.004C118.808 66.668 118.644 66.38 118.348 66.14C118.052 65.9 117.716 65.78 117.34 65.78ZM126.773 62.12C126.981 62.12 127.153 62.188 127.289 62.324C127.425 62.46 127.493 62.636 127.493 62.852V70.268C127.493 70.476 127.425 70.652 127.289 70.796C127.153 70.932 126.981 71 126.773 71C126.565 71 126.393 70.932 126.257 70.796C126.129 70.66 126.061 70.488 126.053 70.28C125.853 70.512 125.581 70.712 125.237 70.88C124.901 71.04 124.545 71.12 124.169 71.12C123.617 71.12 123.117 70.98 122.669 70.7C122.221 70.412 121.865 70.016 121.601 69.512C121.345 69.008 121.217 68.436 121.217 67.796C121.217 67.156 121.345 66.584 121.601 66.08C121.857 65.568 122.205 65.172 122.645 64.892C123.093 64.604 123.585 64.46 124.121 64.46C124.505 64.46 124.865 64.532 125.201 64.676C125.537 64.812 125.821 64.988 126.053 65.204V62.852C126.053 62.644 126.121 62.472 126.257 62.336C126.393 62.192 126.565 62.12 126.773 62.12ZM124.349 69.8C124.869 69.8 125.293 69.612 125.621 69.236C125.949 68.852 126.113 68.372 126.113 67.796C126.113 67.22 125.949 66.74 125.621 66.356C125.293 65.972 124.869 65.78 124.349 65.78C123.837 65.78 123.417 65.972 123.089 66.356C122.761 66.74 122.597 67.22 122.597 67.796C122.597 68.372 122.757 68.852 123.077 69.236C123.405 69.612 123.829 69.8 124.349 69.8ZM137.613 62.12C137.821 62.12 137.993 62.188 138.129 62.324C138.265 62.46 138.333 62.636 138.333 62.852V70.268C138.333 70.476 138.265 70.652 138.129 70.796C137.993 70.932 137.821 71 137.613 71C137.405 71 137.233 70.932 137.097 70.796C136.969 70.66 136.901 70.488 136.893 70.28C136.693 70.512 136.421 70.712 136.077 70.88C135.741 71.04 135.385 71.12 135.009 71.12C134.457 71.12 133.957 70.98 133.509 70.7C133.061 70.412 132.705 70.016 132.441 69.512C132.185 69.008 132.057 68.436 132.057 67.796C132.057 67.156 132.185 66.584 132.441 66.08C132.697 65.568 133.045 65.172 133.485 64.892C133.933 64.604 134.425 64.46 134.961 64.46C135.345 64.46 135.705 64.532 136.041 64.676C136.377 64.812 136.661 64.988 136.893 65.204V62.852C136.893 62.644 136.961 62.472 137.097 62.336C137.233 62.192 137.405 62.12 137.613 62.12ZM135.189 69.8C135.709 69.8 136.133 69.612 136.461 69.236C136.789 68.852 136.953 68.372 136.953 67.796C136.953 67.22 136.789 66.74 136.461 66.356C136.133 65.972 135.709 65.78 135.189 65.78C134.677 65.78 134.257 65.972 133.929 66.356C133.601 66.74 133.437 67.22 133.437 67.796C133.437 68.372 133.597 68.852 133.917 69.236C134.245 69.612 134.669 69.8 135.189 69.8ZM146.061 67.796C146.061 68.436 145.917 69.012 145.629 69.524C145.341 70.028 144.945 70.42 144.441 70.7C143.945 70.98 143.397 71.12 142.797 71.12C142.189 71.12 141.637 70.98 141.141 70.7C140.645 70.42 140.253 70.028 139.965 69.524C139.677 69.012 139.533 68.436 139.533 67.796C139.533 67.156 139.677 66.584 139.965 66.08C140.253 65.568 140.645 65.172 141.141 64.892C141.637 64.604 142.189 64.46 142.797 64.46C143.397 64.46 143.945 64.604 144.441 64.892C144.945 65.172 145.341 65.568 145.629 66.08C145.917 66.584 146.061 67.156 146.061 67.796ZM144.621 67.796C144.621 67.404 144.537 67.056 144.369 66.752C144.209 66.44 143.989 66.2 143.709 66.032C143.437 65.864 143.133 65.78 142.797 65.78C142.461 65.78 142.153 65.864 141.873 66.032C141.601 66.2 141.381 66.44 141.213 66.752C141.053 67.056 140.973 67.404 140.973 67.796C140.973 68.188 141.053 68.536 141.213 68.84C141.381 69.144 141.601 69.38 141.873 69.548C142.153 69.716 142.461 69.8 142.797 69.8C143.133 69.8 143.437 69.716 143.709 69.548C143.989 69.38 144.209 69.144 144.369 68.84C144.537 68.536 144.621 68.188 144.621 67.796ZM150.696 64.46C151.512 64.46 152.076 64.704 152.388 65.192C152.7 65.672 152.856 66.34 152.856 67.196V70.268C152.856 70.476 152.788 70.652 152.652 70.796C152.516 70.932 152.344 71 152.136 71C151.928 71 151.756 70.932 151.62 70.796C151.484 70.652 151.416 70.476 151.416 70.268V67.196C151.416 66.756 151.324 66.412 151.14 66.164C150.956 65.908 150.64 65.78 150.192 65.78C149.728 65.78 149.364 65.916 149.1 66.188C148.836 66.452 148.704 66.788 148.704 67.196V70.268C148.704 70.476 148.636 70.652 148.5 70.796C148.364 70.932 148.192 71 147.984 71C147.776 71 147.604 70.932 147.468 70.796C147.332 70.652 147.264 70.476 147.264 70.268V65.312C147.264 65.104 147.332 64.932 147.468 64.796C147.604 64.652 147.776 64.58 147.984 64.58C148.192 64.58 148.364 64.652 148.5 64.796C148.636 64.932 148.704 65.104 148.704 65.312V65.516C148.92 65.228 149.2 64.98 149.544 64.772C149.896 64.564 150.28 64.46 150.696 64.46ZM159.609 64.46C159.817 64.46 159.989 64.528 160.125 64.664C160.261 64.8 160.329 64.976 160.329 65.192V70.268C160.329 70.476 160.261 70.652 160.125 70.796C159.989 70.932 159.817 71 159.609 71C159.401 71 159.229 70.932 159.093 70.796C158.965 70.66 158.897 70.488 158.889 70.28C158.689 70.512 158.417 70.712 158.073 70.88C157.737 71.04 157.381 71.12 157.005 71.12C156.453 71.12 155.953 70.98 155.505 70.7C155.057 70.412 154.701 70.016 154.437 69.512C154.181 69.008 154.053 68.436 154.053 67.796C154.053 67.156 154.181 66.584 154.437 66.08C154.693 65.568 155.041 65.172 155.481 64.892C155.929 64.604 156.421 64.46 156.957 64.46C157.341 64.46 157.701 64.532 158.037 64.676C158.373 64.812 158.657 64.988 158.889 65.204V65.192C158.889 64.984 158.957 64.812 159.093 64.676C159.229 64.532 159.401 64.46 159.609 64.46ZM157.185 69.8C157.705 69.8 158.129 69.612 158.457 69.236C158.785 68.852 158.949 68.372 158.949 67.796C158.949 67.22 158.785 66.74 158.457 66.356C158.129 65.972 157.705 65.78 157.185 65.78C156.673 65.78 156.253 65.972 155.925 66.356C155.597 66.74 155.433 67.22 155.433 67.796C155.433 68.372 155.593 68.852 155.913 69.236C156.241 69.612 156.665 69.8 157.185 69.8ZM164.985 69.644C165.097 69.644 165.197 69.7 165.285 69.812C165.381 69.916 165.429 70.056 165.429 70.232C165.429 70.448 165.309 70.632 165.069 70.784C164.837 70.928 164.573 71 164.277 71C163.781 71 163.361 70.896 163.017 70.688C162.681 70.472 162.513 70.02 162.513 69.332V66.02H161.961C161.769 66.02 161.609 65.956 161.481 65.828C161.353 65.7 161.289 65.54 161.289 65.348C161.289 65.164 161.353 65.012 161.481 64.892C161.609 64.764 161.769 64.7 161.961 64.7H162.513V63.932C162.513 63.724 162.581 63.552 162.717 63.416C162.861 63.272 163.037 63.2 163.245 63.2C163.445 63.2 163.613 63.272 163.749 63.416C163.885 63.552 163.953 63.724 163.953 63.932V64.7H164.805C164.997 64.7 165.157 64.764 165.285 64.892C165.413 65.02 165.477 65.18 165.477 65.372C165.477 65.556 165.413 65.712 165.285 65.84C165.157 65.96 164.997 66.02 164.805 66.02H163.953V69.272C163.953 69.44 163.997 69.564 164.085 69.644C164.173 69.716 164.293 69.752 164.445 69.752C164.509 69.752 164.597 69.736 164.709 69.704C164.805 69.664 164.897 69.644 164.985 69.644ZM168.156 70.268C168.156 70.476 168.088 70.652 167.952 70.796C167.816 70.932 167.644 71 167.436 71C167.228 71 167.056 70.932 166.92 70.796C166.784 70.652 166.716 70.476 166.716 70.268V65.312C166.716 65.104 166.784 64.932 166.92 64.796C167.056 64.652 167.228 64.58 167.436 64.58C167.644 64.58 167.816 64.652 167.952 64.796C168.088 64.932 168.156 65.104 168.156 65.312V70.268ZM167.424 63.8C167.152 63.8 166.96 63.756 166.848 63.668C166.736 63.58 166.68 63.424 166.68 63.2V62.972C166.68 62.748 166.74 62.592 166.86 62.504C166.98 62.416 167.172 62.372 167.436 62.372C167.716 62.372 167.912 62.416 168.024 62.504C168.136 62.592 168.192 62.748 168.192 62.972V63.2C168.192 63.432 168.132 63.592 168.012 63.68C167.9 63.76 167.704 63.8 167.424 63.8ZM175.803 67.796C175.803 68.436 175.659 69.012 175.371 69.524C175.083 70.028 174.687 70.42 174.183 70.7C173.687 70.98 173.139 71.12 172.539 71.12C171.931 71.12 171.379 70.98 170.883 70.7C170.387 70.42 169.995 70.028 169.707 69.524C169.419 69.012 169.275 68.436 169.275 67.796C169.275 67.156 169.419 66.584 169.707 66.08C169.995 65.568 170.387 65.172 170.883 64.892C171.379 64.604 171.931 64.46 172.539 64.46C173.139 64.46 173.687 64.604 174.183 64.892C174.687 65.172 175.083 65.568 175.371 66.08C175.659 66.584 175.803 67.156 175.803 67.796ZM174.363 67.796C174.363 67.404 174.279 67.056 174.111 66.752C173.951 66.44 173.731 66.2 173.451 66.032C173.179 65.864 172.875 65.78 172.539 65.78C172.203 65.78 171.895 65.864 171.615 66.032C171.343 66.2 171.123 66.44 170.955 66.752C170.795 67.056 170.715 67.404 170.715 67.796C170.715 68.188 170.795 68.536 170.955 68.84C171.123 69.144 171.343 69.38 171.615 69.548C171.895 69.716 172.203 69.8 172.539 69.8C172.875 69.8 173.179 69.716 173.451 69.548C173.731 69.38 173.951 69.144 174.111 68.84C174.279 68.536 174.363 68.188 174.363 67.796ZM180.439 64.46C181.255 64.46 181.819 64.704 182.131 65.192C182.443 65.672 182.599 66.34 182.599 67.196V70.268C182.599 70.476 182.531 70.652 182.395 70.796C182.259 70.932 182.087 71 181.879 71C181.671 71 181.499 70.932 181.363 70.796C181.227 70.652 181.159 70.476 181.159 70.268V67.196C181.159 66.756 181.067 66.412 180.883 66.164C180.699 65.908 180.383 65.78 179.935 65.78C179.471 65.78 179.107 65.916 178.843 66.188C178.579 66.452 178.447 66.788 178.447 67.196V70.268C178.447 70.476 178.379 70.652 178.243 70.796C178.107 70.932 177.935 71 177.727 71C177.519 71 177.347 70.932 177.211 70.796C177.075 70.652 177.007 70.476 177.007 70.268V65.312C177.007 65.104 177.075 64.932 177.211 64.796C177.347 64.652 177.519 64.58 177.727 64.58C177.935 64.58 178.107 64.652 178.243 64.796C178.379 64.932 178.447 65.104 178.447 65.312V65.516C178.663 65.228 178.943 64.98 179.287 64.772C179.639 64.564 180.023 64.46 180.439 64.46ZM183.783 70.004C183.711 69.908 183.675 69.788 183.675 69.644C183.675 69.436 183.779 69.26 183.987 69.116C184.099 69.044 184.215 69.008 184.335 69.008C184.503 69.008 184.663 69.084 184.815 69.236C185.055 69.484 185.303 69.668 185.559 69.788C185.823 69.908 186.139 69.968 186.507 69.968C187.131 69.944 187.443 69.708 187.443 69.26C187.443 69.028 187.335 68.852 187.119 68.732C186.911 68.612 186.583 68.492 186.135 68.372C185.671 68.244 185.291 68.116 184.995 67.988C184.707 67.86 184.455 67.668 184.239 67.412C184.031 67.148 183.927 66.796 183.927 66.356C183.927 65.972 184.035 65.64 184.251 65.36C184.475 65.072 184.763 64.852 185.115 64.7C185.475 64.54 185.855 64.46 186.255 64.46C186.663 64.46 187.071 64.536 187.479 64.688C187.887 64.84 188.207 65.064 188.439 65.36C188.543 65.488 188.595 65.632 188.595 65.792C188.595 65.976 188.519 66.128 188.367 66.248C188.255 66.336 188.127 66.38 187.983 66.38C187.807 66.38 187.663 66.324 187.551 66.212C187.407 66.036 187.219 65.896 186.987 65.792C186.763 65.688 186.507 65.636 186.219 65.636C185.611 65.636 185.307 65.856 185.307 66.296C185.307 66.472 185.363 66.616 185.475 66.728C185.587 66.832 185.727 66.916 185.895 66.98C186.071 67.036 186.315 67.108 186.627 67.196C187.059 67.316 187.419 67.44 187.707 67.568C187.995 67.696 188.239 67.892 188.439 68.156C188.639 68.42 188.739 68.768 188.739 69.2C188.739 69.592 188.623 69.936 188.391 70.232C188.159 70.52 187.859 70.74 187.491 70.892C187.131 71.044 186.759 71.12 186.375 71.12C185.847 71.12 185.355 71.032 184.899 70.856C184.443 70.68 184.071 70.396 183.783 70.004Z" fill="#333333"/>
<path d="M80.184 27.588C80.384 27.588 80.556 27.66 80.7 27.804C80.852 27.94 80.928 28.112 80.928 28.32V35.268C80.928 35.476 80.86 35.652 80.724 35.796C80.588 35.932 80.408 36 80.184 36C79.96 36 79.776 35.932 79.632 35.796C79.496 35.66 79.428 35.484 79.428 35.268V30.432L77.448 33.456C77.368 33.552 77.276 33.632 77.172 33.696C77.068 33.752 76.96 33.776 76.848 33.768C76.744 33.776 76.64 33.752 76.536 33.696C76.432 33.632 76.34 33.552 76.26 33.456L74.28 30.324V35.268C74.28 35.484 74.216 35.66 74.088 35.796C73.96 35.932 73.792 36 73.584 36C73.384 36 73.22 35.932 73.092 35.796C72.964 35.652 72.9 35.476 72.9 35.268V28.32C72.9 28.12 72.972 27.948 73.116 27.804C73.268 27.66 73.448 27.588 73.656 27.588C73.776 27.588 73.896 27.62 74.016 27.684C74.136 27.74 74.228 27.816 74.292 27.912L76.908 31.932L79.596 27.912C79.66 27.816 79.744 27.74 79.848 27.684C79.96 27.62 80.072 27.588 80.184 27.588ZM87.808 29.46C88.016 29.46 88.188 29.528 88.324 29.664C88.46 29.8 88.528 29.976 88.528 30.192V35.268C88.528 35.476 88.46 35.652 88.324 35.796C88.188 35.932 88.016 36 87.808 36C87.6 36 87.428 35.932 87.292 35.796C87.164 35.66 87.096 35.488 87.088 35.28C86.888 35.512 86.616 35.712 86.272 35.88C85.936 36.04 85.58 36.12 85.204 36.12C84.652 36.12 84.152 35.98 83.704 35.7C83.256 35.412 82.9 35.016 82.636 34.512C82.38 34.008 82.252 33.436 82.252 32.796C82.252 32.156 82.38 31.584 82.636 31.08C82.892 30.568 83.24 30.172 83.68 29.892C84.128 29.604 84.62 29.46 85.156 29.46C85.54 29.46 85.9 29.532 86.236 29.676C86.572 29.812 86.856 29.988 87.088 30.204V30.192C87.088 29.984 87.156 29.812 87.292 29.676C87.428 29.532 87.6 29.46 87.808 29.46ZM85.384 34.8C85.904 34.8 86.328 34.612 86.656 34.236C86.984 33.852 87.148 33.372 87.148 32.796C87.148 32.22 86.984 31.74 86.656 31.356C86.328 30.972 85.904 30.78 85.384 30.78C84.872 30.78 84.452 30.972 84.124 31.356C83.796 31.74 83.632 32.22 83.632 32.796C83.632 33.372 83.792 33.852 84.112 34.236C84.44 34.612 84.864 34.8 85.384 34.8ZM91.4446 35.268C91.4446 35.476 91.3766 35.652 91.2406 35.796C91.1046 35.932 90.9326 36 90.7246 36C90.5166 36 90.3446 35.932 90.2086 35.796C90.0726 35.652 90.0046 35.476 90.0046 35.268V30.312C90.0046 30.104 90.0726 29.932 90.2086 29.796C90.3446 29.652 90.5166 29.58 90.7246 29.58C90.9326 29.58 91.1046 29.652 91.2406 29.796C91.3766 29.932 91.4446 30.104 91.4446 30.312V35.268ZM90.7126 28.8C90.4406 28.8 90.2486 28.756 90.1366 28.668C90.0246 28.58 89.9686 28.424 89.9686 28.2V27.972C89.9686 27.748 90.0286 27.592 90.1486 27.504C90.2686 27.416 90.4606 27.372 90.7246 27.372C91.0046 27.372 91.2006 27.416 91.3126 27.504C91.4246 27.592 91.4806 27.748 91.4806 27.972V28.2C91.4806 28.432 91.4206 28.592 91.3006 28.68C91.1886 28.76 90.9926 28.8 90.7126 28.8ZM96.3565 29.46C97.1725 29.46 97.7365 29.704 98.0485 30.192C98.3605 30.672 98.5165 31.34 98.5165 32.196V35.268C98.5165 35.476 98.4485 35.652 98.3125 35.796C98.1765 35.932 98.0045 36 97.7965 36C97.5885 36 97.4165 35.932 97.2805 35.796C97.1445 35.652 97.0765 35.476 97.0765 35.268V32.196C97.0765 31.756 96.9845 31.412 96.8005 31.164C96.6165 30.908 96.3005 30.78 95.8525 30.78C95.3885 30.78 95.0245 30.916 94.7605 31.188C94.4965 31.452 94.3645 31.788 94.3645 32.196V35.268C94.3645 35.476 94.2965 35.652 94.1605 35.796C94.0245 35.932 93.8525 36 93.6445 36C93.4365 36 93.2645 35.932 93.1285 35.796C92.9925 35.652 92.9245 35.476 92.9245 35.268V30.312C92.9245 30.104 92.9925 29.932 93.1285 29.796C93.2645 29.652 93.4365 29.58 93.6445 29.58C93.8525 29.58 94.0245 29.652 94.1605 29.796C94.2965 29.932 94.3645 30.104 94.3645 30.312V30.516C94.5805 30.228 94.8605 29.98 95.2045 29.772C95.5565 29.564 95.9405 29.46 96.3565 29.46ZM103.169 34.644C103.281 34.644 103.381 34.7 103.469 34.812C103.565 34.916 103.613 35.056 103.613 35.232C103.613 35.448 103.493 35.632 103.253 35.784C103.021 35.928 102.757 36 102.461 36C101.965 36 101.545 35.896 101.201 35.688C100.865 35.472 100.697 35.02 100.697 34.332V31.02H100.145C99.953 31.02 99.793 30.956 99.665 30.828C99.537 30.7 99.473 30.54 99.473 30.348C99.473 30.164 99.537 30.012 99.665 29.892C99.793 29.764 99.953 29.7 100.145 29.7H100.697V28.932C100.697 28.724 100.765 28.552 100.901 28.416C101.045 28.272 101.221 28.2 101.429 28.2C101.629 28.2 101.797 28.272 101.933 28.416C102.069 28.552 102.137 28.724 102.137 28.932V29.7H102.989C103.181 29.7 103.341 29.764 103.469 29.892C103.597 30.02 103.661 30.18 103.661 30.372C103.661 30.556 103.597 30.712 103.469 30.84C103.341 30.96 103.181 31.02 102.989 31.02H102.137V34.272C102.137 34.44 102.181 34.564 102.269 34.644C102.357 34.716 102.477 34.752 102.629 34.752C102.693 34.752 102.781 34.736 102.893 34.704C102.989 34.664 103.081 34.644 103.169 34.644ZM110.179 29.46C110.387 29.46 110.559 29.528 110.695 29.664C110.831 29.8 110.899 29.976 110.899 30.192V35.268C110.899 35.476 110.831 35.652 110.695 35.796C110.559 35.932 110.387 36 110.179 36C109.971 36 109.799 35.932 109.663 35.796C109.535 35.66 109.467 35.488 109.459 35.28C109.259 35.512 108.987 35.712 108.643 35.88C108.307 36.04 107.951 36.12 107.575 36.12C107.023 36.12 106.523 35.98 106.075 35.7C105.627 35.412 105.271 35.016 105.007 34.512C104.751 34.008 104.623 33.436 104.623 32.796C104.623 32.156 104.751 31.584 105.007 31.08C105.263 30.568 105.611 30.172 106.051 29.892C106.499 29.604 106.991 29.46 107.527 29.46C107.911 29.46 108.271 29.532 108.607 29.676C108.943 29.812 109.227 29.988 109.459 30.204V30.192C109.459 29.984 109.527 29.812 109.663 29.676C109.799 29.532 109.971 29.46 110.179 29.46ZM107.755 34.8C108.275 34.8 108.699 34.612 109.027 34.236C109.355 33.852 109.519 33.372 109.519 32.796C109.519 32.22 109.355 31.74 109.027 31.356C108.699 30.972 108.275 30.78 107.755 30.78C107.243 30.78 106.823 30.972 106.495 31.356C106.167 31.74 106.003 32.22 106.003 32.796C106.003 33.372 106.163 33.852 106.483 34.236C106.811 34.612 107.235 34.8 107.755 34.8ZM113.816 35.268C113.816 35.476 113.748 35.652 113.612 35.796C113.476 35.932 113.304 36 113.096 36C112.888 36 112.716 35.932 112.58 35.796C112.444 35.652 112.376 35.476 112.376 35.268V30.312C112.376 30.104 112.444 29.932 112.58 29.796C112.716 29.652 112.888 29.58 113.096 29.58C113.304 29.58 113.476 29.652 113.612 29.796C113.748 29.932 113.816 30.104 113.816 30.312V35.268ZM113.084 28.8C112.812 28.8 112.62 28.756 112.508 28.668C112.396 28.58 112.34 28.424 112.34 28.2V27.972C112.34 27.748 112.4 27.592 112.52 27.504C112.64 27.416 112.832 27.372 113.096 27.372C113.376 27.372 113.572 27.416 113.684 27.504C113.796 27.592 113.852 27.748 113.852 27.972V28.2C113.852 28.432 113.792 28.592 113.672 28.68C113.56 28.76 113.364 28.8 113.084 28.8ZM118.728 29.46C119.544 29.46 120.108 29.704 120.42 30.192C120.732 30.672 120.888 31.34 120.888 32.196V35.268C120.888 35.476 120.82 35.652 120.684 35.796C120.548 35.932 120.376 36 120.168 36C119.96 36 119.788 35.932 119.652 35.796C119.516 35.652 119.448 35.476 119.448 35.268V32.196C119.448 31.756 119.356 31.412 119.172 31.164C118.988 30.908 118.672 30.78 118.224 30.78C117.76 30.78 117.396 30.916 117.132 31.188C116.868 31.452 116.736 31.788 116.736 32.196V35.268C116.736 35.476 116.668 35.652 116.532 35.796C116.396 35.932 116.224 36 116.016 36C115.808 36 115.636 35.932 115.5 35.796C115.364 35.652 115.296 35.476 115.296 35.268V30.312C115.296 30.104 115.364 29.932 115.5 29.796C115.636 29.652 115.808 29.58 116.016 29.58C116.224 29.58 116.396 29.652 116.532 29.796C116.668 29.932 116.736 30.104 116.736 30.312V30.516C116.952 30.228 117.232 29.98 117.576 29.772C117.928 29.564 118.312 29.46 118.728 29.46ZM123.8 35.268C123.8 35.476 123.732 35.652 123.596 35.796C123.46 35.932 123.288 36 123.08 36C122.872 36 122.7 35.932 122.564 35.796C122.428 35.652 122.36 35.476 122.36 35.268V30.312C122.36 30.104 122.428 29.932 122.564 29.796C122.7 29.652 122.872 29.58 123.08 29.58C123.288 29.58 123.46 29.652 123.596 29.796C123.732 29.932 123.8 30.104 123.8 30.312V35.268ZM123.068 28.8C122.796 28.8 122.604 28.756 122.492 28.668C122.38 28.58 122.324 28.424 122.324 28.2V27.972C122.324 27.748 122.384 27.592 122.504 27.504C122.624 27.416 122.816 27.372 123.08 27.372C123.36 27.372 123.556 27.416 123.668 27.504C123.78 27.592 123.836 27.748 123.836 27.972V28.2C123.836 28.432 123.776 28.592 123.656 28.68C123.544 28.76 123.348 28.8 123.068 28.8ZM128.712 29.46C129.528 29.46 130.092 29.704 130.404 30.192C130.716 30.672 130.872 31.34 130.872 32.196V35.268C130.872 35.476 130.804 35.652 130.668 35.796C130.532 35.932 130.36 36 130.152 36C129.944 36 129.772 35.932 129.636 35.796C129.5 35.652 129.432 35.476 129.432 35.268V32.196C129.432 31.756 129.34 31.412 129.156 31.164C128.972 30.908 128.656 30.78 128.208 30.78C127.744 30.78 127.38 30.916 127.116 31.188C126.852 31.452 126.72 31.788 126.72 32.196V35.268C126.72 35.476 126.652 35.652 126.516 35.796C126.38 35.932 126.208 36 126 36C125.792 36 125.62 35.932 125.484 35.796C125.348 35.652 125.28 35.476 125.28 35.268V30.312C125.28 30.104 125.348 29.932 125.484 29.796C125.62 29.652 125.792 29.58 126 29.58C126.208 29.58 126.38 29.652 126.516 29.796C126.652 29.932 126.72 30.104 126.72 30.312V30.516C126.936 30.228 127.216 29.98 127.56 29.772C127.912 29.564 128.296 29.46 128.712 29.46ZM137.744 29.46C137.952 29.46 138.124 29.528 138.26 29.664C138.396 29.8 138.464 29.976 138.464 30.192V35.532C138.464 36.508 138.16 37.228 137.552 37.692C136.952 38.164 136.188 38.4 135.26 38.4C135.02 38.4 134.688 38.36 134.264 38.28C133.848 38.2 133.552 38.12 133.376 38.04C132.984 37.872 132.788 37.64 132.788 37.344C132.788 37.288 132.8 37.224 132.824 37.152C132.872 36.976 132.952 36.84 133.064 36.744C133.184 36.656 133.312 36.612 133.448 36.612C133.528 36.612 133.604 36.624 133.676 36.648C133.708 36.656 133.904 36.728 134.264 36.864C134.632 37.008 134.964 37.08 135.26 37.08C135.852 37.08 136.292 36.96 136.58 36.72C136.876 36.488 137.024 36.156 137.024 35.724V35.148C136.848 35.396 136.58 35.62 136.22 35.82C135.868 36.02 135.488 36.12 135.08 36.12C134.52 36.12 134.008 35.98 133.544 35.7C133.088 35.412 132.728 35.016 132.464 34.512C132.2 34.008 132.068 33.436 132.068 32.796C132.068 32.156 132.196 31.584 132.452 31.08C132.716 30.568 133.072 30.172 133.52 29.892C133.976 29.604 134.48 29.46 135.032 29.46C135.44 29.46 135.82 29.544 136.172 29.712C136.524 29.88 136.808 30.084 137.024 30.324V30.192C137.024 29.984 137.092 29.812 137.228 29.676C137.364 29.532 137.536 29.46 137.744 29.46ZM135.26 34.8C135.796 34.8 136.232 34.612 136.568 34.236C136.912 33.852 137.084 33.372 137.084 32.796C137.084 32.22 136.912 31.74 136.568 31.356C136.232 30.972 135.796 30.78 135.26 30.78C134.724 30.78 134.288 30.972 133.952 31.356C133.616 31.74 133.448 32.22 133.448 32.796C133.448 33.372 133.616 33.852 133.952 34.236C134.288 34.612 134.724 34.8 135.26 34.8ZM148.581 29.46C148.789 29.46 148.961 29.528 149.097 29.664C149.233 29.8 149.301 29.976 149.301 30.192V35.268C149.301 35.476 149.233 35.652 149.097 35.796C148.961 35.932 148.789 36 148.581 36C148.373 36 148.201 35.932 148.065 35.796C147.937 35.66 147.869 35.488 147.861 35.28C147.661 35.512 147.389 35.712 147.045 35.88C146.709 36.04 146.353 36.12 145.977 36.12C145.425 36.12 144.925 35.98 144.477 35.7C144.029 35.412 143.673 35.016 143.409 34.512C143.153 34.008 143.025 33.436 143.025 32.796C143.025 32.156 143.153 31.584 143.409 31.08C143.665 30.568 144.013 30.172 144.453 29.892C144.901 29.604 145.393 29.46 145.929 29.46C146.313 29.46 146.673 29.532 147.009 29.676C147.345 29.812 147.629 29.988 147.861 30.204V30.192C147.861 29.984 147.929 29.812 148.065 29.676C148.201 29.532 148.373 29.46 148.581 29.46ZM146.157 34.8C146.677 34.8 147.101 34.612 147.429 34.236C147.757 33.852 147.921 33.372 147.921 32.796C147.921 32.22 147.757 31.74 147.429 31.356C147.101 30.972 146.677 30.78 146.157 30.78C145.645 30.78 145.225 30.972 144.897 31.356C144.569 31.74 144.405 32.22 144.405 32.796C144.405 33.372 144.565 33.852 144.885 34.236C145.213 34.612 145.637 34.8 146.157 34.8ZM157.021 29.46C157.701 29.46 158.249 29.568 158.665 29.784C159.081 29.992 159.289 30.272 159.289 30.624C159.289 30.8 159.237 30.956 159.133 31.092C159.029 31.22 158.893 31.284 158.725 31.284C158.597 31.284 158.493 31.268 158.413 31.236C158.333 31.196 158.253 31.148 158.173 31.092C158.101 31.028 158.029 30.976 157.957 30.936C157.877 30.896 157.757 30.86 157.597 30.828C157.445 30.796 157.321 30.78 157.225 30.78C156.625 30.78 156.153 30.968 155.809 31.344C155.473 31.712 155.305 32.196 155.305 32.796C155.305 33.372 155.477 33.852 155.821 34.236C156.165 34.612 156.605 34.8 157.141 34.8C157.533 34.8 157.825 34.752 158.017 34.656C158.065 34.632 158.129 34.592 158.209 34.536C158.297 34.472 158.377 34.424 158.449 34.392C158.521 34.36 158.609 34.344 158.713 34.344C158.913 34.344 159.069 34.408 159.181 34.536C159.301 34.664 159.361 34.828 159.361 35.028C159.361 35.22 159.249 35.4 159.025 35.568C158.801 35.736 158.505 35.872 158.137 35.976C157.769 36.072 157.377 36.12 156.961 36.12C156.345 36.12 155.801 35.976 155.329 35.688C154.865 35.4 154.505 35.004 154.249 34.5C153.993 33.988 153.865 33.42 153.865 32.796C153.865 32.148 153.997 31.572 154.261 31.068C154.533 30.564 154.909 30.172 155.389 29.892C155.869 29.604 156.413 29.46 157.021 29.46ZM166.569 32.796C166.569 33.436 166.425 34.012 166.137 34.524C165.849 35.028 165.453 35.42 164.949 35.7C164.453 35.98 163.905 36.12 163.305 36.12C162.697 36.12 162.145 35.98 161.649 35.7C161.153 35.42 160.761 35.028 160.473 34.524C160.185 34.012 160.041 33.436 160.041 32.796C160.041 32.156 160.185 31.584 160.473 31.08C160.761 30.568 161.153 30.172 161.649 29.892C162.145 29.604 162.697 29.46 163.305 29.46C163.905 29.46 164.453 29.604 164.949 29.892C165.453 30.172 165.849 30.568 166.137 31.08C166.425 31.584 166.569 32.156 166.569 32.796ZM165.129 32.796C165.129 32.404 165.045 32.056 164.877 31.752C164.717 31.44 164.497 31.2 164.217 31.032C163.945 30.864 163.641 30.78 163.305 30.78C162.969 30.78 162.661 30.864 162.381 31.032C162.109 31.2 161.889 31.44 161.721 31.752C161.561 32.056 161.481 32.404 161.481 32.796C161.481 33.188 161.561 33.536 161.721 33.84C161.889 34.144 162.109 34.38 162.381 34.548C162.661 34.716 162.969 34.8 163.305 34.8C163.641 34.8 163.945 34.716 164.217 34.548C164.497 34.38 164.717 34.144 164.877 33.84C165.045 33.536 165.129 33.188 165.129 32.796ZM171.204 29.46C172.02 29.46 172.584 29.704 172.896 30.192C173.208 30.672 173.364 31.34 173.364 32.196V35.268C173.364 35.476 173.296 35.652 173.16 35.796C173.024 35.932 172.852 36 172.644 36C172.436 36 172.264 35.932 172.128 35.796C171.992 35.652 171.924 35.476 171.924 35.268V32.196C171.924 31.756 171.832 31.412 171.648 31.164C171.464 30.908 171.148 30.78 170.7 30.78C170.236 30.78 169.872 30.916 169.608 31.188C169.344 31.452 169.212 31.788 169.212 32.196V35.268C169.212 35.476 169.144 35.652 169.008 35.796C168.872 35.932 168.7 36 168.492 36C168.284 36 168.112 35.932 167.976 35.796C167.84 35.652 167.772 35.476 167.772 35.268V30.312C167.772 30.104 167.84 29.932 167.976 29.796C168.112 29.652 168.284 29.58 168.492 29.58C168.7 29.58 168.872 29.652 169.008 29.796C169.144 29.932 169.212 30.104 169.212 30.312V30.516C169.428 30.228 169.708 29.98 170.052 29.772C170.404 29.564 170.788 29.46 171.204 29.46ZM174.549 35.004C174.477 34.908 174.441 34.788 174.441 34.644C174.441 34.436 174.545 34.26 174.753 34.116C174.865 34.044 174.981 34.008 175.101 34.008C175.269 34.008 175.429 34.084 175.581 34.236C175.821 34.484 176.069 34.668 176.325 34.788C176.589 34.908 176.905 34.968 177.273 34.968C177.897 34.944 178.209 34.708 178.209 34.26C178.209 34.028 178.101 33.852 177.885 33.732C177.677 33.612 177.349 33.492 176.901 33.372C176.437 33.244 176.057 33.116 175.761 32.988C175.473 32.86 175.221 32.668 175.005 32.412C174.797 32.148 174.693 31.796 174.693 31.356C174.693 30.972 174.801 30.64 175.017 30.36C175.241 30.072 175.529 29.852 175.881 29.7C176.241 29.54 176.621 29.46 177.021 29.46C177.429 29.46 177.837 29.536 178.245 29.688C178.653 29.84 178.973 30.064 179.205 30.36C179.309 30.488 179.361 30.632 179.361 30.792C179.361 30.976 179.285 31.128 179.133 31.248C179.021 31.336 178.893 31.38 178.749 31.38C178.573 31.38 178.429 31.324 178.317 31.212C178.173 31.036 177.985 30.896 177.753 30.792C177.529 30.688 177.273 30.636 176.985 30.636C176.377 30.636 176.073 30.856 176.073 31.296C176.073 31.472 176.129 31.616 176.241 31.728C176.353 31.832 176.493 31.916 176.661 31.98C176.837 32.036 177.081 32.108 177.393 32.196C177.825 32.316 178.185 32.44 178.473 32.568C178.761 32.696 179.005 32.892 179.205 33.156C179.405 33.42 179.505 33.768 179.505 34.2C179.505 34.592 179.389 34.936 179.157 35.232C178.925 35.52 178.625 35.74 178.257 35.892C177.897 36.044 177.525 36.12 177.141 36.12C176.613 36.12 176.121 36.032 175.665 35.856C175.209 35.68 174.837 35.396 174.549 35.004ZM182.066 35.268C182.066 35.476 181.998 35.652 181.862 35.796C181.726 35.932 181.554 36 181.346 36C181.138 36 180.966 35.932 180.83 35.796C180.694 35.652 180.626 35.476 180.626 35.268V30.312C180.626 30.104 180.694 29.932 180.83 29.796C180.966 29.652 181.138 29.58 181.346 29.58C181.554 29.58 181.726 29.652 181.862 29.796C181.998 29.932 182.066 30.104 182.066 30.312V35.268ZM181.334 28.8C181.062 28.8 180.87 28.756 180.758 28.668C180.646 28.58 180.59 28.424 180.59 28.2V27.972C180.59 27.748 180.65 27.592 180.77 27.504C180.89 27.416 181.082 27.372 181.346 27.372C181.626 27.372 181.822 27.416 181.934 27.504C182.046 27.592 182.102 27.748 182.102 27.972V28.2C182.102 28.432 182.042 28.592 181.922 28.68C181.81 28.76 181.614 28.8 181.334 28.8ZM183.174 35.004C183.102 34.908 183.066 34.788 183.066 34.644C183.066 34.436 183.17 34.26 183.378 34.116C183.49 34.044 183.606 34.008 183.726 34.008C183.894 34.008 184.054 34.084 184.206 34.236C184.446 34.484 184.694 34.668 184.95 34.788C185.214 34.908 185.53 34.968 185.898 34.968C186.522 34.944 186.834 34.708 186.834 34.26C186.834 34.028 186.726 33.852 186.51 33.732C186.302 33.612 185.974 33.492 185.526 33.372C185.062 33.244 184.682 33.116 184.386 32.988C184.098 32.86 183.846 32.668 183.63 32.412C183.422 32.148 183.318 31.796 183.318 31.356C183.318 30.972 183.426 30.64 183.642 30.36C183.866 30.072 184.154 29.852 184.506 29.7C184.866 29.54 185.246 29.46 185.646 29.46C186.054 29.46 186.462 29.536 186.87 29.688C187.278 29.84 187.598 30.064 187.83 30.36C187.934 30.488 187.986 30.632 187.986 30.792C187.986 30.976 187.91 31.128 187.758 31.248C187.646 31.336 187.518 31.38 187.374 31.38C187.198 31.38 187.054 31.324 186.942 31.212C186.798 31.036 186.61 30.896 186.378 30.792C186.154 30.688 185.898 30.636 185.61 30.636C185.002 30.636 184.698 30.856 184.698 31.296C184.698 31.472 184.754 31.616 184.866 31.728C184.978 31.832 185.118 31.916 185.286 31.98C185.462 32.036 185.706 32.108 186.018 32.196C186.45 32.316 186.81 32.44 187.098 32.568C187.386 32.696 187.63 32.892 187.83 33.156C188.03 33.42 188.13 33.768 188.13 34.2C188.13 34.592 188.014 34.936 187.782 35.232C187.55 35.52 187.25 35.74 186.882 35.892C186.522 36.044 186.15 36.12 185.766 36.12C185.238 36.12 184.746 36.032 184.29 35.856C183.834 35.68 183.462 35.396 183.174 35.004ZM192.431 34.644C192.543 34.644 192.643 34.7 192.731 34.812C192.827 34.916 192.875 35.056 192.875 35.232C192.875 35.448 192.755 35.632 192.515 35.784C192.283 35.928 192.019 36 191.723 36C191.227 36 190.807 35.896 190.463 35.688C190.127 35.472 189.959 35.02 189.959 34.332V31.02H189.407C189.215 31.02 189.055 30.956 188.927 30.828C188.799 30.7 188.735 30.54 188.735 30.348C188.735 30.164 188.799 30.012 188.927 29.892C189.055 29.764 189.215 29.7 189.407 29.7H189.959V28.932C189.959 28.724 190.027 28.552 190.163 28.416C190.307 28.272 190.483 28.2 190.691 28.2C190.891 28.2 191.059 28.272 191.195 28.416C191.331 28.552 191.399 28.724 191.399 28.932V29.7H192.251C192.443 29.7 192.603 29.764 192.731 29.892C192.859 30.02 192.923 30.18 192.923 30.372C192.923 30.556 192.859 30.712 192.731 30.84C192.603 30.96 192.443 31.02 192.251 31.02H191.399V34.272C191.399 34.44 191.443 34.564 191.531 34.644C191.619 34.716 191.739 34.752 191.891 34.752C191.955 34.752 192.043 34.736 192.155 34.704C192.251 34.664 192.343 34.644 192.431 34.644ZM199.946 32.64C199.938 32.832 199.862 32.988 199.718 33.108C199.574 33.228 199.406 33.288 199.214 33.288H195.254C195.35 33.76 195.57 34.132 195.914 34.404C196.258 34.668 196.646 34.8 197.078 34.8C197.406 34.8 197.662 34.772 197.846 34.716C198.03 34.652 198.174 34.588 198.278 34.524C198.39 34.452 198.466 34.404 198.506 34.38C198.65 34.308 198.786 34.272 198.914 34.272C199.082 34.272 199.226 34.332 199.346 34.452C199.466 34.572 199.526 34.712 199.526 34.872C199.526 35.088 199.414 35.284 199.19 35.46C198.966 35.644 198.666 35.8 198.29 35.928C197.914 36.056 197.534 36.12 197.15 36.12C196.478 36.12 195.89 35.98 195.386 35.7C194.89 35.42 194.506 35.036 194.234 34.548C193.962 34.052 193.826 33.496 193.826 32.88C193.826 32.192 193.97 31.588 194.258 31.068C194.546 30.548 194.926 30.152 195.398 29.88C195.87 29.6 196.374 29.46 196.91 29.46C197.438 29.46 197.934 29.604 198.398 29.892C198.87 30.18 199.246 30.568 199.526 31.056C199.806 31.544 199.946 32.072 199.946 32.64ZM196.91 30.78C195.982 30.78 195.434 31.216 195.266 32.088H198.41V32.004C198.378 31.668 198.214 31.38 197.918 31.14C197.622 30.9 197.286 30.78 196.91 30.78ZM204.579 29.46C205.395 29.46 205.959 29.704 206.271 30.192C206.583 30.672 206.739 31.34 206.739 32.196V35.268C206.739 35.476 206.671 35.652 206.535 35.796C206.399 35.932 206.227 36 206.019 36C205.811 36 205.639 35.932 205.503 35.796C205.367 35.652 205.299 35.476 205.299 35.268V32.196C205.299 31.756 205.207 31.412 205.023 31.164C204.839 30.908 204.523 30.78 204.075 30.78C203.611 30.78 203.247 30.916 202.983 31.188C202.719 31.452 202.587 31.788 202.587 32.196V35.268C202.587 35.476 202.519 35.652 202.383 35.796C202.247 35.932 202.075 36 201.867 36C201.659 36 201.487 35.932 201.351 35.796C201.215 35.652 201.147 35.476 201.147 35.268V30.312C201.147 30.104 201.215 29.932 201.351 29.796C201.487 29.652 201.659 29.58 201.867 29.58C202.075 29.58 202.247 29.652 202.383 29.796C202.519 29.932 202.587 30.104 202.587 30.312V30.516C202.803 30.228 203.083 29.98 203.427 29.772C203.779 29.564 204.163 29.46 204.579 29.46ZM211.392 34.644C211.504 34.644 211.604 34.7 211.692 34.812C211.788 34.916 211.836 35.056 211.836 35.232C211.836 35.448 211.716 35.632 211.476 35.784C211.244 35.928 210.98 36 210.684 36C210.188 36 209.768 35.896 209.424 35.688C209.088 35.472 208.92 35.02 208.92 34.332V31.02H208.368C208.176 31.02 208.016 30.956 207.888 30.828C207.76 30.7 207.696 30.54 207.696 30.348C207.696 30.164 207.76 30.012 207.888 29.892C208.016 29.764 208.176 29.7 208.368 29.7H208.92V28.932C208.92 28.724 208.988 28.552 209.124 28.416C209.268 28.272 209.444 28.2 209.652 28.2C209.852 28.2 210.02 28.272 210.156 28.416C210.292 28.552 210.36 28.724 210.36 28.932V29.7H211.212C211.404 29.7 211.564 29.764 211.692 29.892C211.82 30.02 211.884 30.18 211.884 30.372C211.884 30.556 211.82 30.712 211.692 30.84C211.564 30.96 211.404 31.02 211.212 31.02H210.36V34.272C210.36 34.44 210.404 34.564 210.492 34.644C210.58 34.716 210.7 34.752 210.852 34.752C210.916 34.752 211.004 34.736 211.116 34.704C211.212 34.664 211.304 34.644 211.392 34.644ZM218.129 35.268C218.129 35.476 218.057 35.652 217.913 35.796C217.777 35.932 217.605 36 217.397 36C217.197 36 217.029 35.932 216.893 35.796C216.757 35.652 216.689 35.476 216.689 35.268V27.852C216.689 27.644 216.757 27.472 216.893 27.336C217.037 27.192 217.213 27.12 217.421 27.12C217.621 27.12 217.789 27.192 217.925 27.336C218.061 27.472 218.129 27.644 218.129 27.852V35.268ZM225.446 32.64C225.438 32.832 225.362 32.988 225.218 33.108C225.074 33.228 224.906 33.288 224.714 33.288H220.754C220.85 33.76 221.07 34.132 221.414 34.404C221.758 34.668 222.146 34.8 222.578 34.8C222.906 34.8 223.162 34.772 223.346 34.716C223.53 34.652 223.674 34.588 223.778 34.524C223.89 34.452 223.966 34.404 224.006 34.38C224.15 34.308 224.286 34.272 224.414 34.272C224.582 34.272 224.726 34.332 224.846 34.452C224.966 34.572 225.026 34.712 225.026 34.872C225.026 35.088 224.914 35.284 224.69 35.46C224.466 35.644 224.166 35.8 223.79 35.928C223.414 36.056 223.034 36.12 222.65 36.12C221.978 36.12 221.39 35.98 220.886 35.7C220.39 35.42 220.006 35.036 219.734 34.548C219.462 34.052 219.326 33.496 219.326 32.88C219.326 32.192 219.47 31.588 219.758 31.068C220.046 30.548 220.426 30.152 220.898 29.88C221.37 29.6 221.874 29.46 222.41 29.46C222.938 29.46 223.434 29.604 223.898 29.892C224.37 30.18 224.746 30.568 225.026 31.056C225.306 31.544 225.446 32.072 225.446 32.64ZM222.41 30.78C221.482 30.78 220.934 31.216 220.766 32.088H223.91V32.004C223.878 31.668 223.714 31.38 223.418 31.14C223.122 30.9 222.786 30.78 222.41 30.78ZM231.521 29.592C231.713 29.592 231.873 29.656 232.001 29.784C232.129 29.904 232.193 30.056 232.193 30.24C232.193 30.336 232.161 30.456 232.097 30.6L229.853 35.544C229.797 35.68 229.713 35.788 229.601 35.868C229.497 35.948 229.377 35.992 229.241 36L229.133 36.012C228.997 36.012 228.869 35.972 228.749 35.892C228.637 35.804 228.549 35.688 228.485 35.544L226.253 30.6C226.197 30.472 226.169 30.344 226.169 30.216C226.169 30.056 226.237 29.912 226.373 29.784C226.509 29.648 226.677 29.58 226.877 29.58C227.029 29.58 227.169 29.62 227.297 29.7C227.425 29.78 227.521 29.892 227.585 30.036L229.241 33.828L230.885 30.048C230.949 29.896 231.037 29.78 231.149 29.7C231.261 29.62 231.385 29.584 231.521 29.592ZM239.028 32.64C239.02 32.832 238.944 32.988 238.8 33.108C238.656 33.228 238.488 33.288 238.296 33.288H234.336C234.432 33.76 234.652 34.132 234.996 34.404C235.34 34.668 235.728 34.8 236.16 34.8C236.488 34.8 236.744 34.772 236.928 34.716C237.112 34.652 237.256 34.588 237.36 34.524C237.472 34.452 237.548 34.404 237.588 34.38C237.732 34.308 237.868 34.272 237.996 34.272C238.164 34.272 238.308 34.332 238.428 34.452C238.548 34.572 238.608 34.712 238.608 34.872C238.608 35.088 238.496 35.284 238.272 35.46C238.048 35.644 237.748 35.8 237.372 35.928C236.996 36.056 236.616 36.12 236.232 36.12C235.56 36.12 234.972 35.98 234.468 35.7C233.972 35.42 233.588 35.036 233.316 34.548C233.044 34.052 232.908 33.496 232.908 32.88C232.908 32.192 233.052 31.588 233.34 31.068C233.628 30.548 234.008 30.152 234.48 29.88C234.952 29.6 235.456 29.46 235.992 29.46C236.52 29.46 237.016 29.604 237.48 29.892C237.952 30.18 238.328 30.568 238.608 31.056C238.888 31.544 239.028 32.072 239.028 32.64ZM235.992 30.78C235.064 30.78 234.516 31.216 234.348 32.088H237.492V32.004C237.46 31.668 237.296 31.38 237 31.14C236.704 30.9 236.368 30.78 235.992 30.78ZM241.789 35.268C241.789 35.476 241.717 35.652 241.573 35.796C241.437 35.932 241.265 36 241.057 36C240.857 36 240.689 35.932 240.553 35.796C240.417 35.652 240.349 35.476 240.349 35.268V27.852C240.349 27.644 240.417 27.472 240.553 27.336C240.697 27.192 240.873 27.12 241.081 27.12C241.281 27.12 241.449 27.192 241.585 27.336C241.721 27.472 241.789 27.644 241.789 27.852V35.268ZM252.995 32.796C252.995 33.436 252.851 34.012 252.563 34.524C252.275 35.028 251.879 35.42 251.375 35.7C250.879 35.98 250.331 36.12 249.731 36.12C249.123 36.12 248.571 35.98 248.075 35.7C247.579 35.42 247.187 35.028 246.899 34.524C246.611 34.012 246.467 33.436 246.467 32.796C246.467 32.156 246.611 31.584 246.899 31.08C247.187 30.568 247.579 30.172 248.075 29.892C248.571 29.604 249.123 29.46 249.731 29.46C250.331 29.46 250.879 29.604 251.375 29.892C251.879 30.172 252.275 30.568 252.563 31.08C252.851 31.584 252.995 32.156 252.995 32.796ZM251.555 32.796C251.555 32.404 251.471 32.056 251.303 31.752C251.143 31.44 250.923 31.2 250.643 31.032C250.371 30.864 250.067 30.78 249.731 30.78C249.395 30.78 249.087 30.864 248.807 31.032C248.535 31.2 248.315 31.44 248.147 31.752C247.987 32.056 247.907 32.404 247.907 32.796C247.907 33.188 247.987 33.536 248.147 33.84C248.315 34.144 248.535 34.38 248.807 34.548C249.087 34.716 249.395 34.8 249.731 34.8C250.067 34.8 250.371 34.716 250.643 34.548C250.923 34.38 251.143 34.144 251.303 33.84C251.471 33.536 251.555 33.188 251.555 32.796ZM257.282 28.392C257.01 28.392 256.818 28.472 256.706 28.632C256.594 28.784 256.538 28.952 256.538 29.136V29.7H257.63C257.822 29.7 257.982 29.764 258.11 29.892C258.238 30.012 258.302 30.168 258.302 30.36C258.302 30.552 258.238 30.712 258.11 30.84C257.982 30.96 257.822 31.02 257.63 31.02H256.538V35.268C256.538 35.476 256.47 35.652 256.334 35.796C256.198 35.932 256.026 36 255.818 36C255.61 36 255.438 35.932 255.302 35.796C255.166 35.652 255.098 35.476 255.098 35.268V31.02H254.45C254.258 31.02 254.098 30.96 253.97 30.84C253.842 30.712 253.778 30.552 253.778 30.36C253.778 30.168 253.842 30.012 253.97 29.892C254.098 29.764 254.258 29.7 254.45 29.7H255.098V29.148C255.098 28.548 255.302 28.06 255.71 27.684C256.126 27.308 256.722 27.12 257.498 27.12C257.794 27.12 258.05 27.18 258.266 27.3C258.49 27.42 258.602 27.604 258.602 27.852C258.602 28.044 258.546 28.2 258.434 28.32C258.322 28.44 258.186 28.5 258.026 28.5C257.986 28.5 257.942 28.496 257.894 28.488C257.854 28.48 257.81 28.472 257.762 28.464C257.57 28.416 257.41 28.392 257.282 28.392ZM265.889 29.46C266.441 29.46 266.941 29.604 267.389 29.892C267.837 30.172 268.189 30.564 268.445 31.068C268.709 31.572 268.841 32.144 268.841 32.784C268.841 33.424 268.713 34 268.457 34.512C268.201 35.016 267.849 35.412 267.401 35.7C266.961 35.98 266.473 36.12 265.937 36.12C265.553 36.12 265.189 36.044 264.845 35.892C264.509 35.732 264.229 35.54 264.005 35.316V37.668C264.005 37.876 263.937 38.048 263.801 38.184C263.665 38.328 263.493 38.4 263.285 38.4C263.077 38.4 262.905 38.332 262.769 38.196C262.633 38.06 262.565 37.884 262.565 37.668V30.312C262.565 30.104 262.633 29.932 262.769 29.796C262.905 29.652 263.077 29.58 263.285 29.58C263.493 29.58 263.665 29.652 263.801 29.796C263.937 29.932 264.005 30.104 264.005 30.312V30.36C264.197 30.12 264.465 29.912 264.809 29.736C265.153 29.552 265.513 29.46 265.889 29.46ZM265.709 34.8C266.221 34.8 266.641 34.608 266.969 34.224C267.297 33.84 267.461 33.36 267.461 32.784C267.461 32.208 267.297 31.732 266.969 31.356C266.649 30.972 266.229 30.78 265.709 30.78C265.189 30.78 264.765 30.972 264.437 31.356C264.109 31.732 263.945 32.208 263.945 32.784C263.945 33.36 264.109 33.84 264.437 34.224C264.765 34.608 265.189 34.8 265.709 34.8ZM273.378 29.46C273.618 29.46 273.818 29.528 273.978 29.664C274.146 29.8 274.23 29.96 274.23 30.144C274.23 30.392 274.166 30.58 274.038 30.708C273.91 30.828 273.758 30.888 273.582 30.888C273.462 30.888 273.326 30.86 273.174 30.804C273.15 30.796 273.094 30.78 273.006 30.756C272.926 30.732 272.838 30.72 272.742 30.72C272.534 30.72 272.334 30.784 272.142 30.912C271.95 31.04 271.79 31.236 271.662 31.5C271.542 31.756 271.482 32.064 271.482 32.424V35.268C271.482 35.476 271.414 35.652 271.278 35.796C271.142 35.932 270.97 36 270.762 36C270.554 36 270.382 35.932 270.246 35.796C270.11 35.652 270.042 35.476 270.042 35.268V30.312C270.042 30.104 270.11 29.932 270.246 29.796C270.382 29.652 270.554 29.58 270.762 29.58C270.97 29.58 271.142 29.652 271.278 29.796C271.414 29.932 271.482 30.104 271.482 30.312V30.468C271.666 30.14 271.93 29.892 272.274 29.724C272.618 29.548 272.986 29.46 273.378 29.46ZM281.143 32.796C281.143 33.436 280.999 34.012 280.711 34.524C280.423 35.028 280.027 35.42 279.523 35.7C279.027 35.98 278.479 36.12 277.879 36.12C277.271 36.12 276.719 35.98 276.223 35.7C275.727 35.42 275.335 35.028 275.047 34.524C274.759 34.012 274.615 33.436 274.615 32.796C274.615 32.156 274.759 31.584 275.047 31.08C275.335 30.568 275.727 30.172 276.223 29.892C276.719 29.604 277.271 29.46 277.879 29.46C278.479 29.46 279.027 29.604 279.523 29.892C280.027 30.172 280.423 30.568 280.711 31.08C280.999 31.584 281.143 32.156 281.143 32.796ZM279.703 32.796C279.703 32.404 279.619 32.056 279.451 31.752C279.291 31.44 279.071 31.2 278.791 31.032C278.519 30.864 278.215 30.78 277.879 30.78C277.543 30.78 277.235 30.864 276.955 31.032C276.683 31.2 276.463 31.44 276.295 31.752C276.135 32.056 276.055 32.404 276.055 32.796C276.055 33.188 276.135 33.536 276.295 33.84C276.463 34.144 276.683 34.38 276.955 34.548C277.235 34.716 277.543 34.8 277.879 34.8C278.215 34.8 278.519 34.716 278.791 34.548C279.071 34.38 279.291 34.144 279.451 33.84C279.619 33.536 279.703 33.188 279.703 32.796ZM287.542 27.12C287.75 27.12 287.922 27.188 288.058 27.324C288.194 27.46 288.262 27.636 288.262 27.852V35.268C288.262 35.476 288.194 35.652 288.058 35.796C287.922 35.932 287.75 36 287.542 36C287.334 36 287.162 35.932 287.026 35.796C286.898 35.66 286.83 35.488 286.822 35.28C286.622 35.512 286.35 35.712 286.006 35.88C285.67 36.04 285.314 36.12 284.938 36.12C284.386 36.12 283.886 35.98 283.438 35.7C282.99 35.412 282.634 35.016 282.37 34.512C282.114 34.008 281.986 33.436 281.986 32.796C281.986 32.156 282.114 31.584 282.37 31.08C282.626 30.568 282.974 30.172 283.414 29.892C283.862 29.604 284.354 29.46 284.89 29.46C285.274 29.46 285.634 29.532 285.97 29.676C286.306 29.812 286.59 29.988 286.822 30.204V27.852C286.822 27.644 286.89 27.472 287.026 27.336C287.162 27.192 287.334 27.12 287.542 27.12ZM285.118 34.8C285.638 34.8 286.062 34.612 286.39 34.236C286.718 33.852 286.882 33.372 286.882 32.796C286.882 32.22 286.718 31.74 286.39 31.356C286.062 30.972 285.638 30.78 285.118 30.78C284.606 30.78 284.186 30.972 283.858 31.356C283.53 31.74 283.366 32.22 283.366 32.796C283.366 33.372 283.526 33.852 283.846 34.236C284.174 34.612 284.598 34.8 285.118 34.8ZM294.774 29.58C294.982 29.58 295.154 29.652 295.29 29.796C295.426 29.932 295.494 30.104 295.494 30.312V33.36C295.494 34.224 295.254 34.9 294.774 35.388C294.302 35.876 293.626 36.12 292.746 36.12C291.866 36.12 291.19 35.876 290.718 35.388C290.246 34.9 290.01 34.224 290.01 33.36V30.312C290.01 30.104 290.078 29.932 290.214 29.796C290.35 29.652 290.522 29.58 290.73 29.58C290.938 29.58 291.11 29.652 291.246 29.796C291.382 29.932 291.45 30.104 291.45 30.312V33.36C291.45 33.848 291.558 34.212 291.774 34.452C291.99 34.684 292.314 34.8 292.746 34.8C293.186 34.8 293.514 34.684 293.73 34.452C293.946 34.212 294.054 33.848 294.054 33.36V30.312C294.054 30.104 294.122 29.932 294.258 29.796C294.394 29.652 294.566 29.58 294.774 29.58ZM299.849 29.46C300.529 29.46 301.077 29.568 301.493 29.784C301.909 29.992 302.117 30.272 302.117 30.624C302.117 30.8 302.065 30.956 301.961 31.092C301.857 31.22 301.721 31.284 301.553 31.284C301.425 31.284 301.321 31.268 301.241 31.236C301.161 31.196 301.081 31.148 301.001 31.092C300.929 31.028 300.857 30.976 300.785 30.936C300.705 30.896 300.585 30.86 300.425 30.828C300.273 30.796 300.149 30.78 300.053 30.78C299.453 30.78 298.981 30.968 298.637 31.344C298.301 31.712 298.133 32.196 298.133 32.796C298.133 33.372 298.305 33.852 298.649 34.236C298.993 34.612 299.433 34.8 299.969 34.8C300.361 34.8 300.653 34.752 300.845 34.656C300.893 34.632 300.957 34.592 301.037 34.536C301.125 34.472 301.205 34.424 301.277 34.392C301.349 34.36 301.437 34.344 301.541 34.344C301.741 34.344 301.897 34.408 302.009 34.536C302.129 34.664 302.189 34.828 302.189 35.028C302.189 35.22 302.077 35.4 301.853 35.568C301.629 35.736 301.333 35.872 300.965 35.976C300.597 36.072 300.205 36.12 299.789 36.12C299.173 36.12 298.629 35.976 298.157 35.688C297.693 35.4 297.333 35.004 297.077 34.5C296.821 33.988 296.693 33.42 296.693 32.796C296.693 32.148 296.825 31.572 297.089 31.068C297.361 30.564 297.737 30.172 298.217 29.892C298.697 29.604 299.241 29.46 299.849 29.46ZM306.325 34.644C306.437 34.644 306.537 34.7 306.625 34.812C306.721 34.916 306.769 35.056 306.769 35.232C306.769 35.448 306.649 35.632 306.409 35.784C306.177 35.928 305.913 36 305.617 36C305.121 36 304.701 35.896 304.357 35.688C304.021 35.472 303.853 35.02 303.853 34.332V31.02H303.301C303.109 31.02 302.949 30.956 302.821 30.828C302.693 30.7 302.629 30.54 302.629 30.348C302.629 30.164 302.693 30.012 302.821 29.892C302.949 29.764 303.109 29.7 303.301 29.7H303.853V28.932C303.853 28.724 303.921 28.552 304.057 28.416C304.201 28.272 304.377 28.2 304.585 28.2C304.785 28.2 304.953 28.272 305.089 28.416C305.225 28.552 305.293 28.724 305.293 28.932V29.7H306.145C306.337 29.7 306.497 29.764 306.625 29.892C306.753 30.02 306.817 30.18 306.817 30.372C306.817 30.556 306.753 30.712 306.625 30.84C306.497 30.96 306.337 31.02 306.145 31.02H305.293V34.272C305.293 34.44 305.337 34.564 305.425 34.644C305.513 34.716 305.633 34.752 305.785 34.752C305.849 34.752 305.937 34.736 306.049 34.704C306.145 34.664 306.237 34.644 306.325 34.644ZM309.495 35.268C309.495 35.476 309.427 35.652 309.291 35.796C309.155 35.932 308.983 36 308.775 36C308.567 36 308.395 35.932 308.259 35.796C308.123 35.652 308.055 35.476 308.055 35.268V30.312C308.055 30.104 308.123 29.932 308.259 29.796C308.395 29.652 308.567 29.58 308.775 29.58C308.983 29.58 309.155 29.652 309.291 29.796C309.427 29.932 309.495 30.104 309.495 30.312V35.268ZM308.763 28.8C308.491 28.8 308.299 28.756 308.187 28.668C308.075 28.58 308.019 28.424 308.019 28.2V27.972C308.019 27.748 308.079 27.592 308.199 27.504C308.319 27.416 308.511 27.372 308.775 27.372C309.055 27.372 309.251 27.416 309.363 27.504C309.475 27.592 309.531 27.748 309.531 27.972V28.2C309.531 28.432 309.471 28.592 309.351 28.68C309.239 28.76 309.043 28.8 308.763 28.8ZM315.907 29.592C316.099 29.592 316.259 29.656 316.387 29.784C316.515 29.904 316.579 30.056 316.579 30.24C316.579 30.336 316.547 30.456 316.483 30.6L314.239 35.544C314.183 35.68 314.099 35.788 313.987 35.868C313.883 35.948 313.763 35.992 313.627 36L313.519 36.012C313.383 36.012 313.255 35.972 313.135 35.892C313.023 35.804 312.935 35.688 312.871 35.544L310.639 30.6C310.583 30.472 310.555 30.344 310.555 30.216C310.555 30.056 310.623 29.912 310.759 29.784C310.895 29.648 311.063 29.58 311.263 29.58C311.415 29.58 311.555 29.62 311.683 29.7C311.811 29.78 311.907 29.892 311.971 30.036L313.627 33.828L315.271 30.048C315.335 29.896 315.423 29.78 315.535 29.7C315.647 29.62 315.771 29.584 315.907 29.592ZM319.07 35.268C319.07 35.476 319.002 35.652 318.866 35.796C318.73 35.932 318.558 36 318.35 36C318.142 36 317.97 35.932 317.834 35.796C317.698 35.652 317.63 35.476 317.63 35.268V30.312C317.63 30.104 317.698 29.932 317.834 29.796C317.97 29.652 318.142 29.58 318.35 29.58C318.558 29.58 318.73 29.652 318.866 29.796C319.002 29.932 319.07 30.104 319.07 30.312V35.268ZM318.338 28.8C318.066 28.8 317.874 28.756 317.762 28.668C317.65 28.58 317.594 28.424 317.594 28.2V27.972C317.594 27.748 317.654 27.592 317.774 27.504C317.894 27.416 318.086 27.372 318.35 27.372C318.63 27.372 318.826 27.416 318.938 27.504C319.05 27.592 319.106 27.748 319.106 27.972V28.2C319.106 28.432 319.046 28.592 318.926 28.68C318.814 28.76 318.618 28.8 318.338 28.8ZM323.646 34.644C323.758 34.644 323.858 34.7 323.946 34.812C324.042 34.916 324.09 35.056 324.09 35.232C324.09 35.448 323.97 35.632 323.73 35.784C323.498 35.928 323.234 36 322.938 36C322.442 36 322.022 35.896 321.678 35.688C321.342 35.472 321.174 35.02 321.174 34.332V31.02H320.622C320.43 31.02 320.27 30.956 320.142 30.828C320.014 30.7 319.95 30.54 319.95 30.348C319.95 30.164 320.014 30.012 320.142 29.892C320.27 29.764 320.43 29.7 320.622 29.7H321.174V28.932C321.174 28.724 321.242 28.552 321.378 28.416C321.522 28.272 321.698 28.2 321.906 28.2C322.106 28.2 322.274 28.272 322.41 28.416C322.546 28.552 322.614 28.724 322.614 28.932V29.7H323.466C323.658 29.7 323.818 29.764 323.946 29.892C324.074 30.02 324.138 30.18 324.138 30.372C324.138 30.556 324.074 30.712 323.946 30.84C323.818 30.96 323.658 31.02 323.466 31.02H322.614V34.272C322.614 34.44 322.658 34.564 322.746 34.644C322.834 34.716 322.954 34.752 323.106 34.752C323.17 34.752 323.258 34.736 323.37 34.704C323.466 34.664 323.558 34.644 323.646 34.644ZM330.224 29.58C330.432 29.58 330.604 29.652 330.74 29.796C330.876 29.932 330.944 30.104 330.944 30.312V35.412C330.944 36.452 330.664 37.208 330.104 37.68C329.544 38.16 328.796 38.4 327.86 38.4C327.588 38.4 327.308 38.376 327.02 38.328C326.74 38.288 326.512 38.232 326.336 38.16C325.944 37.992 325.748 37.76 325.748 37.464C325.748 37.408 325.76 37.344 325.784 37.272C325.832 37.096 325.912 36.96 326.024 36.864C326.144 36.776 326.272 36.732 326.408 36.732C326.488 36.732 326.564 36.744 326.636 36.768C326.692 36.792 326.788 36.832 326.924 36.888C327.068 36.944 327.216 36.988 327.368 37.02C327.528 37.06 327.692 37.08 327.86 37.08C328.428 37.08 328.844 36.956 329.108 36.708C329.38 36.468 329.516 36.052 329.516 35.46V35.34C329.1 35.86 328.452 36.12 327.572 36.12C327.156 36.12 326.788 36.024 326.468 35.832C326.148 35.632 325.9 35.36 325.724 35.016C325.548 34.664 325.46 34.264 325.46 33.816V30.312C325.46 30.104 325.528 29.932 325.664 29.796C325.8 29.652 325.972 29.58 326.18 29.58C326.388 29.58 326.56 29.652 326.696 29.796C326.832 29.932 326.9 30.104 326.9 30.312V33.384C326.9 33.888 327.008 34.252 327.224 34.476C327.448 34.692 327.772 34.8 328.196 34.8C328.612 34.8 328.932 34.68 329.156 34.44C329.388 34.192 329.504 33.84 329.504 33.384V30.312C329.504 30.104 329.572 29.932 329.708 29.796C329.844 29.652 330.016 29.58 330.224 29.58Z" fill="#333333"/>
<path d="M74.4 105.268C74.4 105.476 74.324 105.652 74.172 105.796C74.02 105.932 73.844 106 73.644 106C73.428 106 73.248 105.932 73.104 105.796C72.968 105.652 72.9 105.476 72.9 105.268V98.332C72.9 98.124 72.972 97.952 73.116 97.816C73.26 97.672 73.444 97.6 73.668 97.6C73.868 97.6 74.04 97.672 74.184 97.816C74.328 97.952 74.4 98.124 74.4 98.332V105.268ZM79.5167 99.46C80.3327 99.46 80.8967 99.704 81.2087 100.192C81.5207 100.672 81.6767 101.34 81.6767 102.196V105.268C81.6767 105.476 81.6087 105.652 81.4727 105.796C81.3367 105.932 81.1647 106 80.9567 106C80.7487 106 80.5767 105.932 80.4407 105.796C80.3047 105.652 80.2367 105.476 80.2367 105.268V102.196C80.2367 101.756 80.1447 101.412 79.9607 101.164C79.7767 100.908 79.4607 100.78 79.0127 100.78C78.5487 100.78 78.1847 100.916 77.9207 101.188C77.6567 101.452 77.5247 101.788 77.5247 102.196V105.268C77.5247 105.476 77.4567 105.652 77.3207 105.796C77.1847 105.932 77.0127 106 76.8047 106C76.5967 106 76.4247 105.932 76.2887 105.796C76.1527 105.652 76.0847 105.476 76.0847 105.268V100.312C76.0847 100.104 76.1527 99.932 76.2887 99.796C76.4247 99.652 76.5967 99.58 76.8047 99.58C77.0127 99.58 77.1847 99.652 77.3207 99.796C77.4567 99.932 77.5247 100.104 77.5247 100.312V100.516C77.7407 100.228 78.0207 99.98 78.3647 99.772C78.7167 99.564 79.1007 99.46 79.5167 99.46ZM86.0291 99.46C86.7091 99.46 87.2571 99.568 87.6731 99.784C88.0891 99.992 88.2971 100.272 88.2971 100.624C88.2971 100.8 88.2451 100.956 88.1411 101.092C88.0371 101.22 87.9011 101.284 87.7331 101.284C87.6051 101.284 87.5011 101.268 87.4211 101.236C87.3411 101.196 87.2611 101.148 87.1811 101.092C87.1091 101.028 87.0371 100.976 86.9651 100.936C86.8851 100.896 86.7651 100.86 86.6051 100.828C86.4531 100.796 86.3291 100.78 86.2331 100.78C85.6331 100.78 85.1611 100.968 84.8171 101.344C84.4811 101.712 84.3131 102.196 84.3131 102.796C84.3131 103.372 84.4851 103.852 84.8291 104.236C85.1731 104.612 85.6131 104.8 86.1491 104.8C86.5411 104.8 86.8331 104.752 87.0251 104.656C87.0731 104.632 87.1371 104.592 87.2171 104.536C87.3051 104.472 87.3851 104.424 87.4571 104.392C87.5291 104.36 87.6171 104.344 87.7211 104.344C87.9211 104.344 88.0771 104.408 88.1891 104.536C88.3091 104.664 88.3691 104.828 88.3691 105.028C88.3691 105.22 88.2571 105.4 88.0331 105.568C87.8091 105.736 87.5131 105.872 87.1451 105.976C86.7771 106.072 86.3851 106.12 85.9691 106.12C85.3531 106.12 84.8091 105.976 84.3371 105.688C83.8731 105.4 83.5131 105.004 83.2571 104.5C83.0011 103.988 82.8731 103.42 82.8731 102.796C82.8731 102.148 83.0051 101.572 83.2691 101.068C83.5411 100.564 83.9171 100.172 84.3971 99.892C84.8771 99.604 85.4211 99.46 86.0291 99.46ZM92.7449 99.46C92.9849 99.46 93.1849 99.528 93.3449 99.664C93.5129 99.8 93.5969 99.96 93.5969 100.144C93.5969 100.392 93.5329 100.58 93.4049 100.708C93.2769 100.828 93.1249 100.888 92.9489 100.888C92.8289 100.888 92.6929 100.86 92.5409 100.804C92.5169 100.796 92.4609 100.78 92.3729 100.756C92.2929 100.732 92.2049 100.72 92.1089 100.72C91.9009 100.72 91.7009 100.784 91.5089 100.912C91.3169 101.04 91.1569 101.236 91.0289 101.5C90.9089 101.756 90.8489 102.064 90.8489 102.424V105.268C90.8489 105.476 90.7809 105.652 90.6449 105.796C90.5089 105.932 90.3369 106 90.1289 106C89.9209 106 89.7489 105.932 89.6129 105.796C89.4769 105.652 89.4089 105.476 89.4089 105.268V100.312C89.4089 100.104 89.4769 99.932 89.6129 99.796C89.7489 99.652 89.9209 99.58 90.1289 99.58C90.3369 99.58 90.5089 99.652 90.6449 99.796C90.7809 99.932 90.8489 100.104 90.8489 100.312V100.468C91.0329 100.14 91.2969 99.892 91.6409 99.724C91.9849 99.548 92.3529 99.46 92.7449 99.46ZM100.103 102.64C100.095 102.832 100.019 102.988 99.8745 103.108C99.7305 103.228 99.5625 103.288 99.3705 103.288H95.4105C95.5065 103.76 95.7265 104.132 96.0705 104.404C96.4145 104.668 96.8025 104.8 97.2345 104.8C97.5625 104.8 97.8185 104.772 98.0025 104.716C98.1865 104.652 98.3305 104.588 98.4345 104.524C98.5465 104.452 98.6225 104.404 98.6625 104.38C98.8065 104.308 98.9425 104.272 99.0705 104.272C99.2385 104.272 99.3825 104.332 99.5025 104.452C99.6225 104.572 99.6825 104.712 99.6825 104.872C99.6825 105.088 99.5705 105.284 99.3465 105.46C99.1225 105.644 98.8225 105.8 98.4465 105.928C98.0705 106.056 97.6905 106.12 97.3065 106.12C96.6345 106.12 96.0465 105.98 95.5425 105.7C95.0465 105.42 94.6625 105.036 94.3905 104.548C94.1185 104.052 93.9825 103.496 93.9825 102.88C93.9825 102.192 94.1265 101.588 94.4145 101.068C94.7025 100.548 95.0825 100.152 95.5545 99.88C96.0265 99.6 96.5305 99.46 97.0665 99.46C97.5945 99.46 98.0905 99.604 98.5545 99.892C99.0265 100.18 99.4025 100.568 99.6825 101.056C99.9625 101.544 100.103 102.072 100.103 102.64ZM97.0665 100.78C96.1385 100.78 95.5905 101.216 95.4225 102.088H98.5665V102.004C98.5345 101.668 98.3705 101.38 98.0745 101.14C97.7785 100.9 97.4425 100.78 97.0665 100.78ZM106.546 99.46C106.754 99.46 106.926 99.528 107.062 99.664C107.198 99.8 107.266 99.976 107.266 100.192V105.268C107.266 105.476 107.198 105.652 107.062 105.796C106.926 105.932 106.754 106 106.546 106C106.338 106 106.166 105.932 106.03 105.796C105.902 105.66 105.834 105.488 105.826 105.28C105.626 105.512 105.354 105.712 105.01 105.88C104.674 106.04 104.318 106.12 103.942 106.12C103.39 106.12 102.89 105.98 102.442 105.7C101.994 105.412 101.638 105.016 101.374 104.512C101.118 104.008 100.99 103.436 100.99 102.796C100.99 102.156 101.118 101.584 101.374 101.08C101.63 100.568 101.978 100.172 102.418 99.892C102.866 99.604 103.358 99.46 103.894 99.46C104.278 99.46 104.638 99.532 104.974 99.676C105.31 99.812 105.594 99.988 105.826 100.204V100.192C105.826 99.984 105.894 99.812 106.03 99.676C106.166 99.532 106.338 99.46 106.546 99.46ZM104.122 104.8C104.642 104.8 105.066 104.612 105.394 104.236C105.722 103.852 105.886 103.372 105.886 102.796C105.886 102.22 105.722 101.74 105.394 101.356C105.066 100.972 104.642 100.78 104.122 100.78C103.61 100.78 103.19 100.972 102.862 101.356C102.534 101.74 102.37 102.22 102.37 102.796C102.37 103.372 102.53 103.852 102.85 104.236C103.178 104.612 103.602 104.8 104.122 104.8ZM108.455 105.004C108.383 104.908 108.347 104.788 108.347 104.644C108.347 104.436 108.451 104.26 108.659 104.116C108.771 104.044 108.887 104.008 109.007 104.008C109.175 104.008 109.335 104.084 109.487 104.236C109.727 104.484 109.975 104.668 110.231 104.788C110.495 104.908 110.811 104.968 111.179 104.968C111.803 104.944 112.115 104.708 112.115 104.26C112.115 104.028 112.007 103.852 111.791 103.732C111.583 103.612 111.255 103.492 110.807 103.372C110.343 103.244 109.963 103.116 109.667 102.988C109.379 102.86 109.127 102.668 108.911 102.412C108.703 102.148 108.599 101.796 108.599 101.356C108.599 100.972 108.707 100.64 108.923 100.36C109.147 100.072 109.435 99.852 109.787 99.7C110.147 99.54 110.527 99.46 110.927 99.46C111.335 99.46 111.743 99.536 112.151 99.688C112.559 99.84 112.879 100.064 113.111 100.36C113.215 100.488 113.267 100.632 113.267 100.792C113.267 100.976 113.191 101.128 113.039 101.248C112.927 101.336 112.799 101.38 112.655 101.38C112.479 101.38 112.335 101.324 112.223 101.212C112.079 101.036 111.891 100.896 111.659 100.792C111.435 100.688 111.179 100.636 110.891 100.636C110.283 100.636 109.979 100.856 109.979 101.296C109.979 101.472 110.035 101.616 110.147 101.728C110.259 101.832 110.399 101.916 110.567 101.98C110.743 102.036 110.987 102.108 111.299 102.196C111.731 102.316 112.091 102.44 112.379 102.568C112.667 102.696 112.911 102.892 113.111 103.156C113.311 103.42 113.411 103.768 113.411 104.2C113.411 104.592 113.295 104.936 113.063 105.232C112.831 105.52 112.531 105.74 112.163 105.892C111.803 106.044 111.431 106.12 111.047 106.12C110.519 106.12 110.027 106.032 109.571 105.856C109.115 105.68 108.743 105.396 108.455 105.004ZM120.376 102.64C120.368 102.832 120.292 102.988 120.148 103.108C120.004 103.228 119.836 103.288 119.644 103.288H115.684C115.78 103.76 116 104.132 116.344 104.404C116.688 104.668 117.076 104.8 117.508 104.8C117.836 104.8 118.092 104.772 118.276 104.716C118.46 104.652 118.604 104.588 118.708 104.524C118.82 104.452 118.896 104.404 118.936 104.38C119.08 104.308 119.216 104.272 119.344 104.272C119.512 104.272 119.656 104.332 119.776 104.452C119.896 104.572 119.956 104.712 119.956 104.872C119.956 105.088 119.844 105.284 119.62 105.46C119.396 105.644 119.096 105.8 118.72 105.928C118.344 106.056 117.964 106.12 117.58 106.12C116.908 106.12 116.32 105.98 115.816 105.7C115.32 105.42 114.936 105.036 114.664 104.548C114.392 104.052 114.256 103.496 114.256 102.88C114.256 102.192 114.4 101.588 114.688 101.068C114.976 100.548 115.356 100.152 115.828 99.88C116.3 99.6 116.804 99.46 117.34 99.46C117.868 99.46 118.364 99.604 118.828 99.892C119.3 100.18 119.676 100.568 119.956 101.056C120.236 101.544 120.376 102.072 120.376 102.64ZM117.34 100.78C116.412 100.78 115.864 101.216 115.696 102.088H118.84V102.004C118.808 101.668 118.644 101.38 118.348 101.14C118.052 100.9 117.716 100.78 117.34 100.78ZM126.773 97.12C126.981 97.12 127.153 97.188 127.289 97.324C127.425 97.46 127.493 97.636 127.493 97.852V105.268C127.493 105.476 127.425 105.652 127.289 105.796C127.153 105.932 126.981 106 126.773 106C126.565 106 126.393 105.932 126.257 105.796C126.129 105.66 126.061 105.488 126.053 105.28C125.853 105.512 125.581 105.712 125.237 105.88C124.901 106.04 124.545 106.12 124.169 106.12C123.617 106.12 123.117 105.98 122.669 105.7C122.221 105.412 121.865 105.016 121.601 104.512C121.345 104.008 121.217 103.436 121.217 102.796C121.217 102.156 121.345 101.584 121.601 101.08C121.857 100.568 122.205 100.172 122.645 99.892C123.093 99.604 123.585 99.46 124.121 99.46C124.505 99.46 124.865 99.532 125.201 99.676C125.537 99.812 125.821 99.988 126.053 100.204V97.852C126.053 97.644 126.121 97.472 126.257 97.336C126.393 97.192 126.565 97.12 126.773 97.12ZM124.349 104.8C124.869 104.8 125.293 104.612 125.621 104.236C125.949 103.852 126.113 103.372 126.113 102.796C126.113 102.22 125.949 101.74 125.621 101.356C125.293 100.972 124.869 100.78 124.349 100.78C123.837 100.78 123.417 100.972 123.089 101.356C122.761 101.74 122.597 102.22 122.597 102.796C122.597 103.372 122.757 103.852 123.077 104.236C123.405 104.612 123.829 104.8 124.349 104.8ZM139.809 99.58C140.001 99.58 140.161 99.652 140.289 99.796C140.425 99.932 140.493 100.108 140.493 100.324C140.493 100.396 140.477 100.488 140.445 100.6L138.609 105.544C138.561 105.688 138.473 105.804 138.345 105.892C138.225 105.972 138.093 106.012 137.949 106.012L137.853 106C137.581 105.984 137.377 105.832 137.241 105.544L136.221 102.592L135.249 105.544C135.113 105.832 134.909 105.984 134.637 106L134.541 106.012C134.397 106.012 134.261 105.972 134.133 105.892C134.013 105.804 133.929 105.688 133.881 105.544L132.045 100.6C132.013 100.512 131.997 100.42 131.997 100.324C131.997 100.124 132.061 99.952 132.189 99.808C132.325 99.656 132.501 99.58 132.717 99.58C132.877 99.58 133.013 99.62 133.125 99.7C133.245 99.772 133.329 99.884 133.377 100.036L134.673 103.552L135.621 100.984C135.749 100.688 135.969 100.54 136.281 100.54C136.449 100.54 136.577 100.576 136.665 100.648C136.761 100.72 136.841 100.832 136.905 100.984L137.829 103.492L139.113 100.036C139.161 99.884 139.245 99.772 139.365 99.7C139.485 99.62 139.633 99.58 139.809 99.58ZM147.388 102.64C147.38 102.832 147.304 102.988 147.16 103.108C147.016 103.228 146.848 103.288 146.656 103.288H142.696C142.792 103.76 143.012 104.132 143.356 104.404C143.7 104.668 144.088 104.8 144.52 104.8C144.848 104.8 145.104 104.772 145.288 104.716C145.472 104.652 145.616 104.588 145.72 104.524C145.832 104.452 145.908 104.404 145.948 104.38C146.092 104.308 146.228 104.272 146.356 104.272C146.524 104.272 146.668 104.332 146.788 104.452C146.908 104.572 146.968 104.712 146.968 104.872C146.968 105.088 146.856 105.284 146.632 105.46C146.408 105.644 146.108 105.8 145.732 105.928C145.356 106.056 144.976 106.12 144.592 106.12C143.92 106.12 143.332 105.98 142.828 105.7C142.332 105.42 141.948 105.036 141.676 104.548C141.404 104.052 141.268 103.496 141.268 102.88C141.268 102.192 141.412 101.588 141.7 101.068C141.988 100.548 142.368 100.152 142.84 99.88C143.312 99.6 143.816 99.46 144.352 99.46C144.88 99.46 145.376 99.604 145.84 99.892C146.312 100.18 146.688 100.568 146.968 101.056C147.248 101.544 147.388 102.072 147.388 102.64ZM144.352 100.78C143.424 100.78 142.876 101.216 142.708 102.088H145.852V102.004C145.82 101.668 145.656 101.38 145.36 101.14C145.064 100.9 144.728 100.78 144.352 100.78ZM151.913 99.46C152.465 99.46 152.965 99.604 153.413 99.892C153.861 100.172 154.213 100.564 154.469 101.068C154.733 101.572 154.865 102.144 154.865 102.784C154.865 103.424 154.737 104 154.481 104.512C154.225 105.016 153.873 105.412 153.425 105.7C152.985 105.98 152.497 106.12 151.961 106.12C151.577 106.12 151.213 106.044 150.869 105.892C150.533 105.732 150.253 105.54 150.029 105.316V105.388C150.029 105.596 149.961 105.772 149.825 105.916C149.689 106.052 149.517 106.12 149.309 106.12C149.101 106.12 148.929 106.052 148.793 105.916C148.657 105.78 148.589 105.604 148.589 105.388V97.852C148.589 97.644 148.657 97.472 148.793 97.336C148.929 97.192 149.101 97.12 149.309 97.12C149.517 97.12 149.689 97.192 149.825 97.336C149.961 97.472 150.029 97.644 150.029 97.852V100.36C150.221 100.12 150.489 99.912 150.833 99.736C151.177 99.552 151.537 99.46 151.913 99.46ZM151.733 104.8C152.245 104.8 152.665 104.608 152.993 104.224C153.321 103.84 153.485 103.36 153.485 102.784C153.485 102.208 153.321 101.732 152.993 101.356C152.673 100.972 152.253 100.78 151.733 100.78C151.213 100.78 150.789 100.972 150.461 101.356C150.133 101.732 149.969 102.208 149.969 102.784C149.969 103.36 150.133 103.84 150.461 104.224C150.789 104.608 151.213 104.8 151.733 104.8ZM155.693 105.004C155.621 104.908 155.585 104.788 155.585 104.644C155.585 104.436 155.689 104.26 155.897 104.116C156.009 104.044 156.125 104.008 156.245 104.008C156.413 104.008 156.573 104.084 156.725 104.236C156.965 104.484 157.213 104.668 157.469 104.788C157.733 104.908 158.049 104.968 158.417 104.968C159.041 104.944 159.353 104.708 159.353 104.26C159.353 104.028 159.245 103.852 159.029 103.732C158.821 103.612 158.493 103.492 158.045 103.372C157.581 103.244 157.201 103.116 156.905 102.988C156.617 102.86 156.365 102.668 156.149 102.412C155.941 102.148 155.837 101.796 155.837 101.356C155.837 100.972 155.945 100.64 156.161 100.36C156.385 100.072 156.673 99.852 157.025 99.7C157.385 99.54 157.765 99.46 158.165 99.46C158.573 99.46 158.981 99.536 159.389 99.688C159.797 99.84 160.117 100.064 160.349 100.36C160.453 100.488 160.505 100.632 160.505 100.792C160.505 100.976 160.429 101.128 160.277 101.248C160.165 101.336 160.037 101.38 159.893 101.38C159.717 101.38 159.573 101.324 159.461 101.212C159.317 101.036 159.129 100.896 158.897 100.792C158.673 100.688 158.417 100.636 158.129 100.636C157.521 100.636 157.217 100.856 157.217 101.296C157.217 101.472 157.273 101.616 157.385 101.728C157.497 101.832 157.637 101.916 157.805 101.98C157.981 102.036 158.225 102.108 158.537 102.196C158.969 102.316 159.329 102.44 159.617 102.568C159.905 102.696 160.149 102.892 160.349 103.156C160.549 103.42 160.649 103.768 160.649 104.2C160.649 104.592 160.533 104.936 160.301 105.232C160.069 105.52 159.769 105.74 159.401 105.892C159.041 106.044 158.669 106.12 158.285 106.12C157.757 106.12 157.265 106.032 156.809 105.856C156.353 105.68 155.981 105.396 155.693 105.004ZM163.21 105.268C163.21 105.476 163.142 105.652 163.006 105.796C162.87 105.932 162.698 106 162.49 106C162.282 106 162.11 105.932 161.974 105.796C161.838 105.652 161.77 105.476 161.77 105.268V100.312C161.77 100.104 161.838 99.932 161.974 99.796C162.11 99.652 162.282 99.58 162.49 99.58C162.698 99.58 162.87 99.652 163.006 99.796C163.142 99.932 163.21 100.104 163.21 100.312V105.268ZM162.478 98.8C162.206 98.8 162.014 98.756 161.902 98.668C161.79 98.58 161.734 98.424 161.734 98.2V97.972C161.734 97.748 161.794 97.592 161.914 97.504C162.034 97.416 162.226 97.372 162.49 97.372C162.77 97.372 162.966 97.416 163.078 97.504C163.19 97.592 163.246 97.748 163.246 97.972V98.2C163.246 98.432 163.186 98.592 163.066 98.68C162.954 98.76 162.758 98.8 162.478 98.8ZM167.786 104.644C167.898 104.644 167.998 104.7 168.086 104.812C168.182 104.916 168.23 105.056 168.23 105.232C168.23 105.448 168.11 105.632 167.87 105.784C167.638 105.928 167.374 106 167.078 106C166.582 106 166.162 105.896 165.818 105.688C165.482 105.472 165.314 105.02 165.314 104.332V101.02H164.762C164.57 101.02 164.41 100.956 164.282 100.828C164.154 100.7 164.09 100.54 164.09 100.348C164.09 100.164 164.154 100.012 164.282 99.892C164.41 99.764 164.57 99.7 164.762 99.7H165.314V98.932C165.314 98.724 165.382 98.552 165.518 98.416C165.662 98.272 165.838 98.2 166.046 98.2C166.246 98.2 166.414 98.272 166.55 98.416C166.686 98.552 166.754 98.724 166.754 98.932V99.7H167.606C167.798 99.7 167.958 99.764 168.086 99.892C168.214 100.02 168.278 100.18 168.278 100.372C168.278 100.556 168.214 100.712 168.086 100.84C167.958 100.96 167.798 101.02 167.606 101.02H166.754V104.272C166.754 104.44 166.798 104.564 166.886 104.644C166.974 104.716 167.094 104.752 167.246 104.752C167.31 104.752 167.398 104.736 167.51 104.704C167.606 104.664 167.698 104.644 167.786 104.644ZM175.302 102.64C175.294 102.832 175.218 102.988 175.074 103.108C174.93 103.228 174.762 103.288 174.57 103.288H170.61C170.706 103.76 170.926 104.132 171.27 104.404C171.614 104.668 172.002 104.8 172.434 104.8C172.762 104.8 173.018 104.772 173.202 104.716C173.386 104.652 173.53 104.588 173.634 104.524C173.746 104.452 173.822 104.404 173.862 104.38C174.006 104.308 174.142 104.272 174.27 104.272C174.438 104.272 174.582 104.332 174.702 104.452C174.822 104.572 174.882 104.712 174.882 104.872C174.882 105.088 174.77 105.284 174.546 105.46C174.322 105.644 174.022 105.8 173.646 105.928C173.27 106.056 172.89 106.12 172.506 106.12C171.834 106.12 171.246 105.98 170.742 105.7C170.246 105.42 169.862 105.036 169.59 104.548C169.318 104.052 169.182 103.496 169.182 102.88C169.182 102.192 169.326 101.588 169.614 101.068C169.902 100.548 170.282 100.152 170.754 99.88C171.226 99.6 171.73 99.46 172.266 99.46C172.794 99.46 173.29 99.604 173.754 99.892C174.226 100.18 174.602 100.568 174.882 101.056C175.162 101.544 175.302 102.072 175.302 102.64ZM172.266 100.78C171.338 100.78 170.79 101.216 170.622 102.088H173.766V102.004C173.734 101.668 173.57 101.38 173.274 101.14C172.978 100.9 172.642 100.78 172.266 100.78ZM185.626 102.64C185.618 102.832 185.542 102.988 185.398 103.108C185.254 103.228 185.086 103.288 184.894 103.288H180.934C181.03 103.76 181.25 104.132 181.594 104.404C181.938 104.668 182.326 104.8 182.758 104.8C183.086 104.8 183.342 104.772 183.526 104.716C183.71 104.652 183.854 104.588 183.958 104.524C184.07 104.452 184.146 104.404 184.186 104.38C184.33 104.308 184.466 104.272 184.594 104.272C184.762 104.272 184.906 104.332 185.026 104.452C185.146 104.572 185.206 104.712 185.206 104.872C185.206 105.088 185.094 105.284 184.87 105.46C184.646 105.644 184.346 105.8 183.97 105.928C183.594 106.056 183.214 106.12 182.83 106.12C182.158 106.12 181.57 105.98 181.066 105.7C180.57 105.42 180.186 105.036 179.914 104.548C179.642 104.052 179.506 103.496 179.506 102.88C179.506 102.192 179.65 101.588 179.938 101.068C180.226 100.548 180.606 100.152 181.078 99.88C181.55 99.6 182.054 99.46 182.59 99.46C183.118 99.46 183.614 99.604 184.078 99.892C184.55 100.18 184.926 100.568 185.206 101.056C185.486 101.544 185.626 102.072 185.626 102.64ZM182.59 100.78C181.662 100.78 181.114 101.216 180.946 102.088H184.09V102.004C184.058 101.668 183.894 101.38 183.598 101.14C183.302 100.9 182.966 100.78 182.59 100.78ZM190.259 99.46C191.075 99.46 191.639 99.704 191.951 100.192C192.263 100.672 192.419 101.34 192.419 102.196V105.268C192.419 105.476 192.351 105.652 192.215 105.796C192.079 105.932 191.907 106 191.699 106C191.491 106 191.319 105.932 191.183 105.796C191.047 105.652 190.979 105.476 190.979 105.268V102.196C190.979 101.756 190.887 101.412 190.703 101.164C190.519 100.908 190.203 100.78 189.755 100.78C189.291 100.78 188.927 100.916 188.663 101.188C188.399 101.452 188.267 101.788 188.267 102.196V105.268C188.267 105.476 188.199 105.652 188.063 105.796C187.927 105.932 187.755 106 187.547 106C187.339 106 187.167 105.932 187.031 105.796C186.895 105.652 186.827 105.476 186.827 105.268V100.312C186.827 100.104 186.895 99.932 187.031 99.796C187.167 99.652 187.339 99.58 187.547 99.58C187.755 99.58 187.927 99.652 188.063 99.796C188.199 99.932 188.267 100.104 188.267 100.312V100.516C188.483 100.228 188.763 99.98 189.107 99.772C189.459 99.564 189.843 99.46 190.259 99.46ZM199.291 99.46C199.499 99.46 199.671 99.528 199.807 99.664C199.943 99.8 200.011 99.976 200.011 100.192V105.532C200.011 106.508 199.707 107.228 199.099 107.692C198.499 108.164 197.735 108.4 196.807 108.4C196.567 108.4 196.235 108.36 195.811 108.28C195.395 108.2 195.099 108.12 194.923 108.04C194.531 107.872 194.335 107.64 194.335 107.344C194.335 107.288 194.347 107.224 194.371 107.152C194.419 106.976 194.499 106.84 194.611 106.744C194.731 106.656 194.859 106.612 194.995 106.612C195.075 106.612 195.151 106.624 195.223 106.648C195.255 106.656 195.451 106.728 195.811 106.864C196.179 107.008 196.511 107.08 196.807 107.08C197.399 107.08 197.839 106.96 198.127 106.72C198.423 106.488 198.571 106.156 198.571 105.724V105.148C198.395 105.396 198.127 105.62 197.767 105.82C197.415 106.02 197.035 106.12 196.627 106.12C196.067 106.12 195.555 105.98 195.091 105.7C194.635 105.412 194.275 105.016 194.011 104.512C193.747 104.008 193.615 103.436 193.615 102.796C193.615 102.156 193.743 101.584 193.999 101.08C194.263 100.568 194.619 100.172 195.067 99.892C195.523 99.604 196.027 99.46 196.579 99.46C196.987 99.46 197.367 99.544 197.719 99.712C198.071 99.88 198.355 100.084 198.571 100.324V100.192C198.571 99.984 198.639 99.812 198.775 99.676C198.911 99.532 199.083 99.46 199.291 99.46ZM196.807 104.8C197.343 104.8 197.779 104.612 198.115 104.236C198.459 103.852 198.631 103.372 198.631 102.796C198.631 102.22 198.459 101.74 198.115 101.356C197.779 100.972 197.343 100.78 196.807 100.78C196.271 100.78 195.835 100.972 195.499 101.356C195.163 101.74 194.995 102.22 194.995 102.796C194.995 103.372 195.163 103.852 195.499 104.236C195.835 104.612 196.271 104.8 196.807 104.8ZM206.706 99.46C206.914 99.46 207.086 99.528 207.222 99.664C207.358 99.8 207.426 99.976 207.426 100.192V105.268C207.426 105.476 207.358 105.652 207.222 105.796C207.086 105.932 206.914 106 206.706 106C206.498 106 206.326 105.932 206.19 105.796C206.062 105.66 205.994 105.488 205.986 105.28C205.786 105.512 205.514 105.712 205.17 105.88C204.834 106.04 204.478 106.12 204.102 106.12C203.55 106.12 203.05 105.98 202.602 105.7C202.154 105.412 201.798 105.016 201.534 104.512C201.278 104.008 201.15 103.436 201.15 102.796C201.15 102.156 201.278 101.584 201.534 101.08C201.79 100.568 202.138 100.172 202.578 99.892C203.026 99.604 203.518 99.46 204.054 99.46C204.438 99.46 204.798 99.532 205.134 99.676C205.47 99.812 205.754 99.988 205.986 100.204V100.192C205.986 99.984 206.054 99.812 206.19 99.676C206.326 99.532 206.498 99.46 206.706 99.46ZM204.282 104.8C204.802 104.8 205.226 104.612 205.554 104.236C205.882 103.852 206.046 103.372 206.046 102.796C206.046 102.22 205.882 101.74 205.554 101.356C205.226 100.972 204.802 100.78 204.282 100.78C203.77 100.78 203.35 100.972 203.022 101.356C202.694 101.74 202.53 102.22 202.53 102.796C202.53 103.372 202.69 103.852 203.01 104.236C203.338 104.612 203.762 104.8 204.282 104.8ZM214.303 99.46C214.511 99.46 214.683 99.528 214.819 99.664C214.955 99.8 215.023 99.976 215.023 100.192V105.532C215.023 106.508 214.719 107.228 214.111 107.692C213.511 108.164 212.747 108.4 211.819 108.4C211.579 108.4 211.247 108.36 210.823 108.28C210.407 108.2 210.111 108.12 209.935 108.04C209.543 107.872 209.347 107.64 209.347 107.344C209.347 107.288 209.359 107.224 209.383 107.152C209.431 106.976 209.511 106.84 209.623 106.744C209.743 106.656 209.871 106.612 210.007 106.612C210.087 106.612 210.163 106.624 210.235 106.648C210.267 106.656 210.463 106.728 210.823 106.864C211.191 107.008 211.523 107.08 211.819 107.08C212.411 107.08 212.851 106.96 213.139 106.72C213.435 106.488 213.583 106.156 213.583 105.724V105.148C213.407 105.396 213.139 105.62 212.779 105.82C212.427 106.02 212.047 106.12 211.639 106.12C211.079 106.12 210.567 105.98 210.103 105.7C209.647 105.412 209.287 105.016 209.023 104.512C208.759 104.008 208.627 103.436 208.627 102.796C208.627 102.156 208.755 101.584 209.011 101.08C209.275 100.568 209.631 100.172 210.079 99.892C210.535 99.604 211.039 99.46 211.591 99.46C211.999 99.46 212.379 99.544 212.731 99.712C213.083 99.88 213.367 100.084 213.583 100.324V100.192C213.583 99.984 213.651 99.812 213.787 99.676C213.923 99.532 214.095 99.46 214.303 99.46ZM211.819 104.8C212.355 104.8 212.791 104.612 213.127 104.236C213.471 103.852 213.643 103.372 213.643 102.796C213.643 102.22 213.471 101.74 213.127 101.356C212.791 100.972 212.355 100.78 211.819 100.78C211.283 100.78 210.847 100.972 210.511 101.356C210.175 101.74 210.007 102.22 210.007 102.796C210.007 103.372 210.175 103.852 210.511 104.236C210.847 104.612 211.283 104.8 211.819 104.8ZM222.106 102.64C222.098 102.832 222.022 102.988 221.878 103.108C221.734 103.228 221.566 103.288 221.374 103.288H217.414C217.51 103.76 217.73 104.132 218.074 104.404C218.418 104.668 218.806 104.8 219.238 104.8C219.566 104.8 219.822 104.772 220.006 104.716C220.19 104.652 220.334 104.588 220.438 104.524C220.55 104.452 220.626 104.404 220.666 104.38C220.81 104.308 220.946 104.272 221.074 104.272C221.242 104.272 221.386 104.332 221.506 104.452C221.626 104.572 221.686 104.712 221.686 104.872C221.686 105.088 221.574 105.284 221.35 105.46C221.126 105.644 220.826 105.8 220.45 105.928C220.074 106.056 219.694 106.12 219.31 106.12C218.638 106.12 218.05 105.98 217.546 105.7C217.05 105.42 216.666 105.036 216.394 104.548C216.122 104.052 215.986 103.496 215.986 102.88C215.986 102.192 216.13 101.588 216.418 101.068C216.706 100.548 217.086 100.152 217.558 99.88C218.03 99.6 218.534 99.46 219.07 99.46C219.598 99.46 220.094 99.604 220.558 99.892C221.03 100.18 221.406 100.568 221.686 101.056C221.966 101.544 222.106 102.072 222.106 102.64ZM219.07 100.78C218.142 100.78 217.594 101.216 217.426 102.088H220.57V102.004C220.538 101.668 220.374 101.38 220.078 101.14C219.782 100.9 219.446 100.78 219.07 100.78ZM230.711 99.46C231.503 99.46 232.051 99.704 232.355 100.192C232.659 100.672 232.811 101.34 232.811 102.196V105.268C232.811 105.476 232.743 105.652 232.607 105.796C232.471 105.932 232.299 106 232.091 106C231.883 106 231.711 105.932 231.575 105.796C231.439 105.652 231.371 105.476 231.371 105.268V102.196C231.371 101.756 231.283 101.412 231.107 101.164C230.939 100.908 230.639 100.78 230.207 100.78C229.759 100.78 229.407 100.916 229.151 101.188C228.903 101.452 228.779 101.788 228.779 102.196V105.268C228.779 105.476 228.711 105.652 228.575 105.796C228.439 105.932 228.267 106 228.059 106C227.851 106 227.679 105.932 227.543 105.796C227.407 105.652 227.339 105.476 227.339 105.268V102.196C227.339 101.756 227.251 101.412 227.075 101.164C226.907 100.908 226.607 100.78 226.175 100.78C225.727 100.78 225.375 100.916 225.119 101.188C224.871 101.452 224.747 101.788 224.747 102.196V105.268C224.747 105.476 224.679 105.652 224.543 105.796C224.407 105.932 224.235 106 224.027 106C223.819 106 223.647 105.932 223.511 105.796C223.375 105.652 223.307 105.476 223.307 105.268V100.312C223.307 100.104 223.375 99.932 223.511 99.796C223.647 99.652 223.819 99.58 224.027 99.58C224.235 99.58 224.407 99.652 224.543 99.796C224.679 99.932 224.747 100.104 224.747 100.312V100.504C224.963 100.216 225.235 99.972 225.563 99.772C225.899 99.564 226.271 99.46 226.679 99.46C227.687 99.46 228.331 99.9 228.611 100.78C228.795 100.444 229.071 100.14 229.439 99.868C229.815 99.596 230.239 99.46 230.711 99.46ZM240.13 102.64C240.122 102.832 240.046 102.988 239.902 103.108C239.758 103.228 239.59 103.288 239.398 103.288H235.438C235.534 103.76 235.754 104.132 236.098 104.404C236.442 104.668 236.83 104.8 237.262 104.8C237.59 104.8 237.846 104.772 238.03 104.716C238.214 104.652 238.358 104.588 238.462 104.524C238.574 104.452 238.65 104.404 238.69 104.38C238.834 104.308 238.97 104.272 239.098 104.272C239.266 104.272 239.41 104.332 239.53 104.452C239.65 104.572 239.71 104.712 239.71 104.872C239.71 105.088 239.598 105.284 239.374 105.46C239.15 105.644 238.85 105.8 238.474 105.928C238.098 106.056 237.718 106.12 237.334 106.12C236.662 106.12 236.074 105.98 235.57 105.7C235.074 105.42 234.69 105.036 234.418 104.548C234.146 104.052 234.01 103.496 234.01 102.88C234.01 102.192 234.154 101.588 234.442 101.068C234.73 100.548 235.11 100.152 235.582 99.88C236.054 99.6 236.558 99.46 237.094 99.46C237.622 99.46 238.118 99.604 238.582 99.892C239.054 100.18 239.43 100.568 239.71 101.056C239.99 101.544 240.13 102.072 240.13 102.64ZM237.094 100.78C236.166 100.78 235.618 101.216 235.45 102.088H238.594V102.004C238.562 101.668 238.398 101.38 238.102 101.14C237.806 100.9 237.47 100.78 237.094 100.78ZM244.763 99.46C245.579 99.46 246.143 99.704 246.455 100.192C246.767 100.672 246.923 101.34 246.923 102.196V105.268C246.923 105.476 246.855 105.652 246.719 105.796C246.583 105.932 246.411 106 246.203 106C245.995 106 245.823 105.932 245.687 105.796C245.551 105.652 245.483 105.476 245.483 105.268V102.196C245.483 101.756 245.391 101.412 245.207 101.164C245.023 100.908 244.707 100.78 244.259 100.78C243.795 100.78 243.431 100.916 243.167 101.188C242.903 101.452 242.771 101.788 242.771 102.196V105.268C242.771 105.476 242.703 105.652 242.567 105.796C242.431 105.932 242.259 106 242.051 106C241.843 106 241.671 105.932 241.535 105.796C241.399 105.652 241.331 105.476 241.331 105.268V100.312C241.331 100.104 241.399 99.932 241.535 99.796C241.671 99.652 241.843 99.58 242.051 99.58C242.259 99.58 242.431 99.652 242.567 99.796C242.703 99.932 242.771 100.104 242.771 100.312V100.516C242.987 100.228 243.267 99.98 243.611 99.772C243.963 99.564 244.347 99.46 244.763 99.46ZM251.575 104.644C251.687 104.644 251.787 104.7 251.875 104.812C251.971 104.916 252.019 105.056 252.019 105.232C252.019 105.448 251.899 105.632 251.659 105.784C251.427 105.928 251.163 106 250.867 106C250.371 106 249.951 105.896 249.607 105.688C249.271 105.472 249.103 105.02 249.103 104.332V101.02H248.551C248.359 101.02 248.199 100.956 248.071 100.828C247.943 100.7 247.879 100.54 247.879 100.348C247.879 100.164 247.943 100.012 248.071 99.892C248.199 99.764 248.359 99.7 248.551 99.7H249.103V98.932C249.103 98.724 249.171 98.552 249.307 98.416C249.451 98.272 249.627 98.2 249.835 98.2C250.035 98.2 250.203 98.272 250.339 98.416C250.475 98.552 250.543 98.724 250.543 98.932V99.7H251.395C251.587 99.7 251.747 99.764 251.875 99.892C252.003 100.02 252.067 100.18 252.067 100.372C252.067 100.556 252.003 100.712 251.875 100.84C251.747 100.96 251.587 101.02 251.395 101.02H250.543V104.272C250.543 104.44 250.587 104.564 250.675 104.644C250.763 104.716 250.883 104.752 251.035 104.752C251.099 104.752 251.187 104.736 251.299 104.704C251.395 104.664 251.487 104.644 251.575 104.644Z" fill="#333333"/>
<circle cx="58" cy="32" r="2" fill="#333333"/>
<circle cx="58" cy="67" r="2" fill="#333333"/>
<circle cx="58" cy="102" r="2" fill="#333333"/>
</svg>
