<svg width="353" height="238" viewBox="0 0 353 238" fill="none" xmlns="http://www.w3.org/2000/svg">
<g clip-path="url(#clip0_713_451)">
<rect width="353" height="238" fill="white"/>
<path d="M96.644 135.522L243.699 26.3177L264.745 208.273L96.644 135.522Z" stroke="#333333"/>
<circle cx="244" cy="26" r="6" fill="#333333"/>
<circle cx="250.5" cy="83.5" r="15.5" fill="#F5CB5C"/>
<circle cx="97" cy="135" r="6" fill="#333333"/>
<circle cx="264" cy="209" r="6" fill="#333333"/>
<path d="M252.471 16C252.21 16 251.976 15.9207 251.771 15.762C251.566 15.594 251.463 15.3887 251.463 15.146V7.054C251.463 6.81133 251.542 6.61067 251.701 6.452C251.869 6.284 252.074 6.2 252.317 6.2H256.349C256.834 6.2 257.287 6.33067 257.707 6.592C258.136 6.844 258.482 7.19867 258.743 7.656C259.004 8.104 259.135 8.622 259.135 9.21C259.135 9.56467 259.06 9.91 258.911 10.246C258.771 10.582 258.575 10.8853 258.323 11.156C258.08 11.4267 257.805 11.6367 257.497 11.786L257.511 11.464C257.772 11.604 257.987 11.772 258.155 11.968C258.332 12.1547 258.468 12.36 258.561 12.584C258.664 12.7987 258.724 13.032 258.743 13.284C258.78 13.5173 258.804 13.7227 258.813 13.9C258.832 14.0773 258.86 14.2267 258.897 14.348C258.944 14.4693 259.028 14.5627 259.149 14.628C259.354 14.7493 259.48 14.9267 259.527 15.16C259.583 15.384 259.532 15.5847 259.373 15.762C259.27 15.8833 259.14 15.9627 258.981 16C258.822 16.028 258.664 16.028 258.505 16C258.346 15.9627 258.216 15.916 258.113 15.86C257.954 15.7667 257.796 15.6313 257.637 15.454C257.478 15.2673 257.348 15.02 257.245 14.712C257.152 14.404 257.105 14.0073 257.105 13.522C257.105 13.3633 257.077 13.2187 257.021 13.088C256.965 12.948 256.886 12.8313 256.783 12.738C256.68 12.6353 256.55 12.5607 256.391 12.514C256.232 12.458 256.046 12.43 255.831 12.43H253.003L253.213 12.108V15.146C253.213 15.3887 253.148 15.594 253.017 15.762C252.886 15.9207 252.704 16 252.471 16ZM253.017 10.988H256.279C256.447 10.988 256.61 10.9133 256.769 10.764C256.928 10.6053 257.058 10.3953 257.161 10.134C257.264 9.86333 257.315 9.56933 257.315 9.252C257.315 8.84133 257.203 8.50067 256.979 8.23C256.764 7.95 256.531 7.81 256.279 7.81H253.045L253.213 7.362V11.324L253.017 10.988ZM268.132 12.262C268.132 13.0273 267.959 13.704 267.614 14.292C267.278 14.8707 266.821 15.3233 266.242 15.65C265.673 15.9767 265.033 16.14 264.324 16.14C263.615 16.14 262.971 15.9767 262.392 15.65C261.823 15.3233 261.365 14.8707 261.02 14.292C260.684 13.704 260.516 13.0273 260.516 12.262C260.516 11.4967 260.684 10.8247 261.02 10.246C261.365 9.658 261.823 9.20067 262.392 8.874C262.971 8.538 263.615 8.37 264.324 8.37C265.033 8.37 265.673 8.538 266.242 8.874C266.821 9.20067 267.278 9.658 267.614 10.246C267.959 10.8247 268.132 11.4967 268.132 12.262ZM266.452 12.262C266.452 11.786 266.354 11.3753 266.158 11.03C265.971 10.6753 265.715 10.4 265.388 10.204C265.071 10.008 264.716 9.91 264.324 9.91C263.932 9.91 263.573 10.008 263.246 10.204C262.929 10.4 262.672 10.6753 262.476 11.03C262.289 11.3753 262.196 11.786 262.196 12.262C262.196 12.7287 262.289 13.1393 262.476 13.494C262.672 13.8393 262.929 14.11 263.246 14.306C263.573 14.502 263.932 14.6 264.324 14.6C264.716 14.6 265.071 14.502 265.388 14.306C265.715 14.11 265.971 13.8393 266.158 13.494C266.354 13.1393 266.452 12.7287 266.452 12.262ZM271.422 15.146C271.422 15.3887 271.338 15.594 271.17 15.762C271.012 15.9207 270.811 16 270.568 16C270.335 16 270.139 15.9207 269.98 15.762C269.822 15.594 269.742 15.3887 269.742 15.146V6.494C269.742 6.25133 269.822 6.05067 269.98 5.892C270.148 5.724 270.354 5.64 270.596 5.64C270.839 5.64 271.035 5.724 271.184 5.892C271.343 6.05067 271.422 6.25133 271.422 6.494V15.146ZM276.767 16.14C275.974 16.14 275.283 15.9767 274.695 15.65C274.116 15.314 273.668 14.8613 273.351 14.292C273.043 13.7227 272.889 13.0787 272.889 12.36C272.889 11.52 273.057 10.806 273.393 10.218C273.738 9.62067 274.186 9.16333 274.737 8.846C275.288 8.52867 275.871 8.37 276.487 8.37C276.963 8.37 277.411 8.468 277.831 8.664C278.26 8.86 278.638 9.13067 278.965 9.476C279.292 9.812 279.548 10.204 279.735 10.652C279.931 11.1 280.029 11.576 280.029 12.08C280.02 12.304 279.931 12.486 279.763 12.626C279.595 12.766 279.399 12.836 279.175 12.836H273.827L273.407 11.436H278.545L278.237 11.716V11.338C278.218 11.0673 278.12 10.8247 277.943 10.61C277.775 10.3953 277.56 10.2273 277.299 10.106C277.047 9.97533 276.776 9.91 276.487 9.91C276.207 9.91 275.946 9.94733 275.703 10.022C275.46 10.0967 275.25 10.2227 275.073 10.4C274.896 10.5773 274.756 10.8153 274.653 11.114C274.55 11.4127 274.499 11.7907 274.499 12.248C274.499 12.752 274.602 13.1813 274.807 13.536C275.022 13.8813 275.292 14.1473 275.619 14.334C275.955 14.5113 276.31 14.6 276.683 14.6C277.028 14.6 277.304 14.572 277.509 14.516C277.714 14.46 277.878 14.3947 277.999 14.32C278.13 14.236 278.246 14.166 278.349 14.11C278.517 14.026 278.676 13.984 278.825 13.984C279.03 13.984 279.198 14.054 279.329 14.194C279.469 14.334 279.539 14.4973 279.539 14.684C279.539 14.936 279.408 15.1647 279.147 15.37C278.904 15.5753 278.564 15.7573 278.125 15.916C277.686 16.0653 277.234 16.14 276.767 16.14Z" fill="#333333"/>
<path d="M3.00801 158.146C3.00801 158.389 2.91934 158.594 2.74201 158.762C2.56467 158.921 2.35934 159 2.12601 159C1.86467 159 1.65467 158.921 1.49601 158.762C1.33734 158.594 1.25801 158.389 1.25801 158.146V150.054C1.25801 149.811 1.34201 149.611 1.51001 149.452C1.67801 149.284 1.89267 149.2 2.15401 149.2C2.37801 149.2 2.57401 149.284 2.74201 149.452C2.91934 149.611 3.00801 149.811 3.00801 150.054V158.146ZM8.90748 151.37C9.65414 151.37 10.2048 151.552 10.5595 151.916C10.9141 152.271 11.1475 152.733 11.2595 153.302L11.0215 153.176L11.1335 152.952C11.2455 152.737 11.4181 152.509 11.6515 152.266C11.8848 152.014 12.1648 151.804 12.4915 151.636C12.8275 151.459 13.2008 151.37 13.6115 151.37C14.2835 151.37 14.7921 151.515 15.1375 151.804C15.4921 152.093 15.7348 152.481 15.8655 152.966C15.9961 153.442 16.0615 153.974 16.0615 154.562V158.146C16.0615 158.389 15.9821 158.594 15.8235 158.762C15.6648 158.921 15.4641 159 15.2215 159C14.9788 159 14.7781 158.921 14.6195 158.762C14.4608 158.594 14.3815 158.389 14.3815 158.146V154.562C14.3815 154.254 14.3441 153.979 14.2695 153.736C14.1948 153.484 14.0595 153.283 13.8635 153.134C13.6675 152.985 13.3875 152.91 13.0235 152.91C12.6688 152.91 12.3655 152.985 12.1135 153.134C11.8615 153.283 11.6701 153.484 11.5395 153.736C11.4181 153.979 11.3575 154.254 11.3575 154.562V158.146C11.3575 158.389 11.2781 158.594 11.1195 158.762C10.9608 158.921 10.7601 159 10.5175 159C10.2748 159 10.0741 158.921 9.91548 158.762C9.75681 158.594 9.67748 158.389 9.67748 158.146V154.562C9.67748 154.254 9.64014 153.979 9.56548 153.736C9.49081 153.484 9.35548 153.283 9.15948 153.134C8.96348 152.985 8.68348 152.91 8.31948 152.91C7.96481 152.91 7.66148 152.985 7.40948 153.134C7.15748 153.283 6.96614 153.484 6.83548 153.736C6.71414 153.979 6.65348 154.254 6.65348 154.562V158.146C6.65348 158.389 6.57414 158.594 6.41548 158.762C6.25681 158.921 6.05614 159 5.81348 159C5.57081 159 5.37014 158.921 5.21148 158.762C5.05281 158.594 4.97348 158.389 4.97348 158.146V152.364C4.97348 152.121 5.05281 151.921 5.21148 151.762C5.37014 151.594 5.57081 151.51 5.81348 151.51C6.05614 151.51 6.25681 151.594 6.41548 151.762C6.57414 151.921 6.65348 152.121 6.65348 152.364V152.966L6.44348 152.924C6.52748 152.765 6.64414 152.597 6.79348 152.42C6.94281 152.233 7.12481 152.061 7.33948 151.902C7.55414 151.743 7.79214 151.617 8.05348 151.524C8.31481 151.421 8.59948 151.37 8.90748 151.37ZM21.7577 151.37C22.4111 151.37 22.9944 151.538 23.5077 151.874C24.0304 152.201 24.4411 152.653 24.7397 153.232C25.0477 153.811 25.2017 154.483 25.2017 155.248C25.2017 156.013 25.0477 156.69 24.7397 157.278C24.4411 157.857 24.0351 158.314 23.5217 158.65C23.0177 158.977 22.4484 159.14 21.8137 159.14C21.4404 159.14 21.0904 159.079 20.7637 158.958C20.4371 158.837 20.1477 158.683 19.8957 158.496C19.6531 158.309 19.4617 158.123 19.3217 157.936C19.1911 157.74 19.1257 157.577 19.1257 157.446L19.5597 157.264V160.946C19.5597 161.189 19.4804 161.389 19.3217 161.548C19.1631 161.716 18.9624 161.8 18.7197 161.8C18.4771 161.8 18.2764 161.721 18.1177 161.562C17.9591 161.403 17.8797 161.198 17.8797 160.946V152.364C17.8797 152.121 17.9591 151.921 18.1177 151.762C18.2764 151.594 18.4771 151.51 18.7197 151.51C18.9624 151.51 19.1631 151.594 19.3217 151.762C19.4804 151.921 19.5597 152.121 19.5597 152.364V153.05L19.3217 152.924C19.3217 152.803 19.3871 152.658 19.5177 152.49C19.6484 152.313 19.8257 152.14 20.0497 151.972C20.2737 151.795 20.5304 151.65 20.8197 151.538C21.1184 151.426 21.4311 151.37 21.7577 151.37ZM21.5477 152.91C21.1371 152.91 20.7777 153.013 20.4697 153.218C20.1617 153.423 19.9191 153.703 19.7417 154.058C19.5737 154.403 19.4897 154.8 19.4897 155.248C19.4897 155.687 19.5737 156.088 19.7417 156.452C19.9191 156.807 20.1617 157.087 20.4697 157.292C20.7777 157.497 21.1371 157.6 21.5477 157.6C21.9584 157.6 22.3131 157.497 22.6117 157.292C22.9197 157.087 23.1577 156.807 23.3257 156.452C23.5031 156.088 23.5917 155.687 23.5917 155.248C23.5917 154.8 23.5031 154.403 23.3257 154.058C23.1577 153.703 22.9197 153.423 22.6117 153.218C22.3131 153.013 21.9584 152.91 21.5477 152.91ZM28.4907 158.146C28.4907 158.389 28.4067 158.594 28.2387 158.762C28.0801 158.921 27.8794 159 27.6367 159C27.4034 159 27.2074 158.921 27.0487 158.762C26.8901 158.594 26.8107 158.389 26.8107 158.146V149.494C26.8107 149.251 26.8901 149.051 27.0487 148.892C27.2167 148.724 27.4221 148.64 27.6647 148.64C27.9074 148.64 28.1034 148.724 28.2527 148.892C28.4114 149.051 28.4907 149.251 28.4907 149.494V158.146ZM33.8355 159.14C33.0421 159.14 32.3515 158.977 31.7635 158.65C31.1848 158.314 30.7368 157.861 30.4195 157.292C30.1115 156.723 29.9575 156.079 29.9575 155.36C29.9575 154.52 30.1255 153.806 30.4615 153.218C30.8068 152.621 31.2548 152.163 31.8055 151.846C32.3561 151.529 32.9395 151.37 33.5555 151.37C34.0315 151.37 34.4795 151.468 34.8995 151.664C35.3288 151.86 35.7068 152.131 36.0335 152.476C36.3601 152.812 36.6168 153.204 36.8035 153.652C36.9995 154.1 37.0975 154.576 37.0975 155.08C37.0881 155.304 36.9995 155.486 36.8315 155.626C36.6635 155.766 36.4675 155.836 36.2435 155.836H30.8955L30.4755 154.436H35.6135L35.3055 154.716V154.338C35.2868 154.067 35.1888 153.825 35.0115 153.61C34.8435 153.395 34.6288 153.227 34.3675 153.106C34.1155 152.975 33.8448 152.91 33.5555 152.91C33.2755 152.91 33.0141 152.947 32.7715 153.022C32.5288 153.097 32.3188 153.223 32.1415 153.4C31.9641 153.577 31.8241 153.815 31.7215 154.114C31.6188 154.413 31.5675 154.791 31.5675 155.248C31.5675 155.752 31.6701 156.181 31.8755 156.536C32.0901 156.881 32.3608 157.147 32.6875 157.334C33.0235 157.511 33.3781 157.6 33.7515 157.6C34.0968 157.6 34.3721 157.572 34.5775 157.516C34.7828 157.46 34.9461 157.395 35.0675 157.32C35.1981 157.236 35.3148 157.166 35.4175 157.11C35.5855 157.026 35.7441 156.984 35.8935 156.984C36.0988 156.984 36.2668 157.054 36.3975 157.194C36.5375 157.334 36.6075 157.497 36.6075 157.684C36.6075 157.936 36.4768 158.165 36.2155 158.37C35.9728 158.575 35.6321 158.757 35.1935 158.916C34.7548 159.065 34.3021 159.14 33.8355 159.14ZM42.4993 151.37C43.2459 151.37 43.7966 151.552 44.1513 151.916C44.5059 152.271 44.7393 152.733 44.8513 153.302L44.6133 153.176L44.7253 152.952C44.8373 152.737 45.0099 152.509 45.2433 152.266C45.4766 152.014 45.7566 151.804 46.0833 151.636C46.4193 151.459 46.7926 151.37 47.2033 151.37C47.8753 151.37 48.3839 151.515 48.7293 151.804C49.0839 152.093 49.3266 152.481 49.4573 152.966C49.5879 153.442 49.6533 153.974 49.6533 154.562V158.146C49.6533 158.389 49.5739 158.594 49.4153 158.762C49.2566 158.921 49.0559 159 48.8133 159C48.5706 159 48.3699 158.921 48.2113 158.762C48.0526 158.594 47.9733 158.389 47.9733 158.146V154.562C47.9733 154.254 47.9359 153.979 47.8613 153.736C47.7866 153.484 47.6513 153.283 47.4553 153.134C47.2593 152.985 46.9793 152.91 46.6153 152.91C46.2606 152.91 45.9573 152.985 45.7053 153.134C45.4533 153.283 45.2619 153.484 45.1313 153.736C45.0099 153.979 44.9493 154.254 44.9493 154.562V158.146C44.9493 158.389 44.8699 158.594 44.7113 158.762C44.5526 158.921 44.3519 159 44.1093 159C43.8666 159 43.6659 158.921 43.5073 158.762C43.3486 158.594 43.2693 158.389 43.2693 158.146V154.562C43.2693 154.254 43.2319 153.979 43.1573 153.736C43.0826 153.484 42.9473 153.283 42.7513 153.134C42.5553 152.985 42.2753 152.91 41.9113 152.91C41.5566 152.91 41.2533 152.985 41.0013 153.134C40.7493 153.283 40.5579 153.484 40.4273 153.736C40.3059 153.979 40.2453 154.254 40.2453 154.562V158.146C40.2453 158.389 40.1659 158.594 40.0073 158.762C39.8486 158.921 39.6479 159 39.4053 159C39.1626 159 38.9619 158.921 38.8033 158.762C38.6446 158.594 38.5653 158.389 38.5653 158.146V152.364C38.5653 152.121 38.6446 151.921 38.8033 151.762C38.9619 151.594 39.1626 151.51 39.4053 151.51C39.6479 151.51 39.8486 151.594 40.0073 151.762C40.1659 151.921 40.2453 152.121 40.2453 152.364V152.966L40.0353 152.924C40.1193 152.765 40.2359 152.597 40.3853 152.42C40.5346 152.233 40.7166 152.061 40.9313 151.902C41.1459 151.743 41.3839 151.617 41.6453 151.524C41.9066 151.421 42.1913 151.37 42.4993 151.37ZM54.9995 159.14C54.2062 159.14 53.5155 158.977 52.9275 158.65C52.3489 158.314 51.9009 157.861 51.5835 157.292C51.2755 156.723 51.1215 156.079 51.1215 155.36C51.1215 154.52 51.2895 153.806 51.6255 153.218C51.9709 152.621 52.4189 152.163 52.9695 151.846C53.5202 151.529 54.1035 151.37 54.7195 151.37C55.1955 151.37 55.6435 151.468 56.0635 151.664C56.4929 151.86 56.8709 152.131 57.1975 152.476C57.5242 152.812 57.7809 153.204 57.9675 153.652C58.1635 154.1 58.2615 154.576 58.2615 155.08C58.2522 155.304 58.1635 155.486 57.9955 155.626C57.8275 155.766 57.6315 155.836 57.4075 155.836H52.0595L51.6395 154.436H56.7775L56.4695 154.716V154.338C56.4509 154.067 56.3529 153.825 56.1755 153.61C56.0075 153.395 55.7929 153.227 55.5315 153.106C55.2795 152.975 55.0089 152.91 54.7195 152.91C54.4395 152.91 54.1782 152.947 53.9355 153.022C53.6929 153.097 53.4829 153.223 53.3055 153.4C53.1282 153.577 52.9882 153.815 52.8855 154.114C52.7829 154.413 52.7315 154.791 52.7315 155.248C52.7315 155.752 52.8342 156.181 53.0395 156.536C53.2542 156.881 53.5249 157.147 53.8515 157.334C54.1875 157.511 54.5422 157.6 54.9155 157.6C55.2609 157.6 55.5362 157.572 55.7415 157.516C55.9469 157.46 56.1102 157.395 56.2315 157.32C56.3622 157.236 56.4789 157.166 56.5815 157.11C56.7495 157.026 56.9082 156.984 57.0575 156.984C57.2629 156.984 57.4309 157.054 57.5615 157.194C57.7015 157.334 57.7715 157.497 57.7715 157.684C57.7715 157.936 57.6409 158.165 57.3795 158.37C57.1369 158.575 56.7962 158.757 56.3575 158.916C55.9189 159.065 55.4662 159.14 54.9995 159.14ZM63.7333 151.37C64.424 151.37 64.9467 151.515 65.3013 151.804C65.6653 152.093 65.9127 152.481 66.0433 152.966C66.1833 153.442 66.2533 153.974 66.2533 154.562V158.146C66.2533 158.389 66.174 158.594 66.0153 158.762C65.8567 158.921 65.656 159 65.4133 159C65.1707 159 64.97 158.921 64.8113 158.762C64.6527 158.594 64.5733 158.389 64.5733 158.146V154.562C64.5733 154.254 64.5313 153.979 64.4473 153.736C64.3727 153.484 64.2327 153.283 64.0273 153.134C63.822 152.985 63.528 152.91 63.1453 152.91C62.772 152.91 62.4547 152.985 62.1933 153.134C61.9413 153.283 61.7453 153.484 61.6053 153.736C61.4747 153.979 61.4093 154.254 61.4093 154.562V158.146C61.4093 158.389 61.33 158.594 61.1713 158.762C61.0127 158.921 60.812 159 60.5693 159C60.3267 159 60.126 158.921 59.9673 158.762C59.8087 158.594 59.7293 158.389 59.7293 158.146V152.364C59.7293 152.121 59.8087 151.921 59.9673 151.762C60.126 151.594 60.3267 151.51 60.5693 151.51C60.812 151.51 61.0127 151.594 61.1713 151.762C61.33 151.921 61.4093 152.121 61.4093 152.364V152.966L61.1993 152.924C61.2833 152.765 61.4047 152.597 61.5633 152.42C61.722 152.233 61.9087 152.061 62.1233 151.902C62.338 151.743 62.5807 151.617 62.8513 151.524C63.122 151.421 63.416 151.37 63.7333 151.37ZM68.1532 151.65H71.4712C71.6952 151.65 71.8818 151.725 72.0312 151.874C72.1805 152.023 72.2552 152.21 72.2552 152.434C72.2552 152.649 72.1805 152.831 72.0312 152.98C71.8818 153.12 71.6952 153.19 71.4712 153.19H68.1532C67.9292 153.19 67.7425 153.115 67.5932 152.966C67.4438 152.817 67.3692 152.63 67.3692 152.406C67.3692 152.191 67.4438 152.014 67.5932 151.874C67.7425 151.725 67.9292 151.65 68.1532 151.65ZM69.6512 149.9C69.8938 149.9 70.0898 149.984 70.2392 150.152C70.3978 150.311 70.4772 150.511 70.4772 150.754V156.984C70.4772 157.115 70.5005 157.222 70.5472 157.306C70.6032 157.39 70.6732 157.451 70.7572 157.488C70.8505 157.525 70.9485 157.544 71.0512 157.544C71.1632 157.544 71.2658 157.525 71.3592 157.488C71.4525 157.441 71.5598 157.418 71.6812 157.418C71.8118 157.418 71.9285 157.479 72.0312 157.6C72.1432 157.721 72.1992 157.889 72.1992 158.104C72.1992 158.365 72.0545 158.58 71.7652 158.748C71.4852 158.916 71.1818 159 70.8552 159C70.6592 159 70.4398 158.986 70.1972 158.958C69.9638 158.921 69.7398 158.841 69.5252 158.72C69.3198 158.589 69.1472 158.393 69.0072 158.132C68.8672 157.871 68.7972 157.511 68.7972 157.054V150.754C68.7972 150.511 68.8765 150.311 69.0352 150.152C69.2032 149.984 69.4085 149.9 69.6512 149.9ZM79.9297 151.37C80.1724 151.37 80.373 151.449 80.5317 151.608C80.6904 151.767 80.7697 151.972 80.7697 152.224V158.146C80.7697 158.389 80.6904 158.594 80.5317 158.762C80.373 158.921 80.1724 159 79.9297 159C79.687 159 79.4864 158.921 79.3277 158.762C79.169 158.594 79.0897 158.389 79.0897 158.146V157.46L79.3977 157.586C79.3977 157.707 79.3324 157.857 79.2017 158.034C79.071 158.202 78.8937 158.37 78.6697 158.538C78.4457 158.706 78.1797 158.851 77.8717 158.972C77.573 159.084 77.2464 159.14 76.8917 159.14C76.2477 159.14 75.6644 158.977 75.1417 158.65C74.619 158.314 74.2037 157.857 73.8957 157.278C73.597 156.69 73.4477 156.018 73.4477 155.262C73.4477 154.497 73.597 153.825 73.8957 153.246C74.2037 152.658 74.6144 152.201 75.1277 151.874C75.641 151.538 76.2104 151.37 76.8357 151.37C77.237 151.37 77.6057 151.431 77.9417 151.552C78.2777 151.673 78.567 151.827 78.8097 152.014C79.0617 152.201 79.253 152.392 79.3837 152.588C79.5237 152.775 79.5937 152.933 79.5937 153.064L79.0897 153.246V152.224C79.0897 151.981 79.169 151.781 79.3277 151.622C79.4864 151.454 79.687 151.37 79.9297 151.37ZM77.1017 157.6C77.5124 157.6 77.8717 157.497 78.1797 157.292C78.4877 157.087 78.7257 156.807 78.8937 156.452C79.071 156.097 79.1597 155.701 79.1597 155.262C79.1597 154.814 79.071 154.413 78.8937 154.058C78.7257 153.703 78.4877 153.423 78.1797 153.218C77.8717 153.013 77.5124 152.91 77.1017 152.91C76.7004 152.91 76.3457 153.013 76.0377 153.218C75.7297 153.423 75.487 153.703 75.3097 154.058C75.1417 154.413 75.0577 154.814 75.0577 155.262C75.0577 155.701 75.1417 156.097 75.3097 156.452C75.487 156.807 75.7297 157.087 76.0377 157.292C76.3457 157.497 76.7004 157.6 77.1017 157.6ZM82.6727 151.65H85.9907C86.2147 151.65 86.4014 151.725 86.5507 151.874C86.7 152.023 86.7747 152.21 86.7747 152.434C86.7747 152.649 86.7 152.831 86.5507 152.98C86.4014 153.12 86.2147 153.19 85.9907 153.19H82.6727C82.4487 153.19 82.262 153.115 82.1127 152.966C81.9634 152.817 81.8887 152.63 81.8887 152.406C81.8887 152.191 81.9634 152.014 82.1127 151.874C82.262 151.725 82.4487 151.65 82.6727 151.65ZM84.1707 149.9C84.4134 149.9 84.6094 149.984 84.7587 150.152C84.9174 150.311 84.9967 150.511 84.9967 150.754V156.984C84.9967 157.115 85.02 157.222 85.0667 157.306C85.1227 157.39 85.1927 157.451 85.2767 157.488C85.37 157.525 85.468 157.544 85.5707 157.544C85.6827 157.544 85.7854 157.525 85.8787 157.488C85.972 157.441 86.0794 157.418 86.2007 157.418C86.3314 157.418 86.448 157.479 86.5507 157.6C86.6627 157.721 86.7187 157.889 86.7187 158.104C86.7187 158.365 86.574 158.58 86.2847 158.748C86.0047 158.916 85.7014 159 85.3747 159C85.1787 159 84.9594 158.986 84.7167 158.958C84.4834 158.921 84.2594 158.841 84.0447 158.72C83.8394 158.589 83.6667 158.393 83.5267 158.132C83.3867 157.871 83.3167 157.511 83.3167 157.054V150.754C83.3167 150.511 83.396 150.311 83.5547 150.152C83.7227 149.984 83.928 149.9 84.1707 149.9ZM89.8992 158.146C89.8992 158.389 89.8199 158.594 89.6612 158.762C89.5026 158.921 89.3019 159 89.0592 159C88.8166 159 88.6159 158.921 88.4572 158.762C88.2986 158.594 88.2192 158.389 88.2192 158.146V152.364C88.2192 152.121 88.2986 151.921 88.4572 151.762C88.6159 151.594 88.8166 151.51 89.0592 151.51C89.3019 151.51 89.5026 151.594 89.6612 151.762C89.8199 151.921 89.8992 152.121 89.8992 152.364V158.146ZM89.0452 150.6C88.7279 150.6 88.5039 150.549 88.3732 150.446C88.2426 150.343 88.1772 150.161 88.1772 149.9V149.634C88.1772 149.363 88.2472 149.181 88.3872 149.088C88.5366 148.985 88.7606 148.934 89.0592 148.934C89.3859 148.934 89.6146 148.985 89.7452 149.088C89.8759 149.191 89.9412 149.373 89.9412 149.634V149.9C89.9412 150.171 89.8712 150.357 89.7312 150.46C89.5912 150.553 89.3626 150.6 89.0452 150.6ZM98.8918 155.262C98.8918 156.027 98.7192 156.704 98.3738 157.292C98.0378 157.871 97.5805 158.323 97.0018 158.65C96.4325 158.977 95.7932 159.14 95.0838 159.14C94.3745 159.14 93.7305 158.977 93.1518 158.65C92.5825 158.323 92.1252 157.871 91.7798 157.292C91.4438 156.704 91.2758 156.027 91.2758 155.262C91.2758 154.497 91.4438 153.825 91.7798 153.246C92.1252 152.658 92.5825 152.201 93.1518 151.874C93.7305 151.538 94.3745 151.37 95.0838 151.37C95.7932 151.37 96.4325 151.538 97.0018 151.874C97.5805 152.201 98.0378 152.658 98.3738 153.246C98.7192 153.825 98.8918 154.497 98.8918 155.262ZM97.2118 155.262C97.2118 154.786 97.1138 154.375 96.9178 154.03C96.7312 153.675 96.4745 153.4 96.1478 153.204C95.8305 153.008 95.4758 152.91 95.0838 152.91C94.6918 152.91 94.3325 153.008 94.0058 153.204C93.6885 153.4 93.4318 153.675 93.2358 154.03C93.0492 154.375 92.9558 154.786 92.9558 155.262C92.9558 155.729 93.0492 156.139 93.2358 156.494C93.4318 156.839 93.6885 157.11 94.0058 157.306C94.3325 157.502 94.6918 157.6 95.0838 157.6C95.4758 157.6 95.8305 157.502 96.1478 157.306C96.4745 157.11 96.7312 156.839 96.9178 156.494C97.1138 156.139 97.2118 155.729 97.2118 155.262ZM104.366 151.37C105.057 151.37 105.579 151.515 105.934 151.804C106.298 152.093 106.545 152.481 106.676 152.966C106.816 153.442 106.886 153.974 106.886 154.562V158.146C106.886 158.389 106.807 158.594 106.648 158.762C106.489 158.921 106.289 159 106.046 159C105.803 159 105.603 158.921 105.444 158.762C105.285 158.594 105.206 158.389 105.206 158.146V154.562C105.206 154.254 105.164 153.979 105.08 153.736C105.005 153.484 104.865 153.283 104.66 153.134C104.455 152.985 104.161 152.91 103.778 152.91C103.405 152.91 103.087 152.985 102.826 153.134C102.574 153.283 102.378 153.484 102.238 153.736C102.107 153.979 102.042 154.254 102.042 154.562V158.146C102.042 158.389 101.963 158.594 101.804 158.762C101.645 158.921 101.445 159 101.202 159C100.959 159 100.759 158.921 100.6 158.762C100.441 158.594 100.362 158.389 100.362 158.146V152.364C100.362 152.121 100.441 151.921 100.6 151.762C100.759 151.594 100.959 151.51 101.202 151.51C101.445 151.51 101.645 151.594 101.804 151.762C101.963 151.921 102.042 152.121 102.042 152.364V152.966L101.832 152.924C101.916 152.765 102.037 152.597 102.196 152.42C102.355 152.233 102.541 152.061 102.756 151.902C102.971 151.743 103.213 151.617 103.484 151.524C103.755 151.421 104.049 151.37 104.366 151.37Z" fill="#333333"/>
<path d="M265.929 232.362C266.171 232.362 266.372 232.441 266.531 232.6C266.699 232.749 266.783 232.945 266.783 233.188C266.783 233.421 266.699 233.617 266.531 233.776C266.372 233.925 266.171 234 265.929 234H261.379C261.136 234 260.931 233.921 260.763 233.762C260.604 233.594 260.525 233.389 260.525 233.146V225.054C260.525 224.811 260.609 224.611 260.777 224.452C260.945 224.284 261.159 224.2 261.421 224.2C261.645 224.2 261.841 224.284 262.009 224.452C262.186 224.611 262.275 224.811 262.275 225.054V232.6L261.967 232.362H265.929ZM275.512 230.262C275.512 231.027 275.339 231.704 274.994 232.292C274.658 232.871 274.201 233.323 273.622 233.65C273.053 233.977 272.413 234.14 271.704 234.14C270.995 234.14 270.351 233.977 269.772 233.65C269.203 233.323 268.745 232.871 268.4 232.292C268.064 231.704 267.896 231.027 267.896 230.262C267.896 229.497 268.064 228.825 268.4 228.246C268.745 227.658 269.203 227.201 269.772 226.874C270.351 226.538 270.995 226.37 271.704 226.37C272.413 226.37 273.053 226.538 273.622 226.874C274.201 227.201 274.658 227.658 274.994 228.246C275.339 228.825 275.512 229.497 275.512 230.262ZM273.832 230.262C273.832 229.786 273.734 229.375 273.538 229.03C273.351 228.675 273.095 228.4 272.768 228.204C272.451 228.008 272.096 227.91 271.704 227.91C271.312 227.91 270.953 228.008 270.626 228.204C270.309 228.4 270.052 228.675 269.856 229.03C269.669 229.375 269.576 229.786 269.576 230.262C269.576 230.729 269.669 231.139 269.856 231.494C270.052 231.839 270.309 232.11 270.626 232.306C270.953 232.502 271.312 232.6 271.704 232.6C272.096 232.6 272.451 232.502 272.768 232.306C273.095 232.11 273.351 231.839 273.538 231.494C273.734 231.139 273.832 230.729 273.832 230.262ZM284.248 230.262C284.248 231.027 284.076 231.704 283.73 232.292C283.394 232.871 282.937 233.323 282.358 233.65C281.789 233.977 281.15 234.14 280.44 234.14C279.731 234.14 279.087 233.977 278.508 233.65C277.939 233.323 277.482 232.871 277.136 232.292C276.8 231.704 276.632 231.027 276.632 230.262C276.632 229.497 276.8 228.825 277.136 228.246C277.482 227.658 277.939 227.201 278.508 226.874C279.087 226.538 279.731 226.37 280.44 226.37C281.15 226.37 281.789 226.538 282.358 226.874C282.937 227.201 283.394 227.658 283.73 228.246C284.076 228.825 284.248 229.497 284.248 230.262ZM282.568 230.262C282.568 229.786 282.47 229.375 282.274 229.03C282.088 228.675 281.831 228.4 281.504 228.204C281.187 228.008 280.832 227.91 280.44 227.91C280.048 227.91 279.689 228.008 279.362 228.204C279.045 228.4 278.788 228.675 278.592 229.03C278.406 229.375 278.312 229.786 278.312 230.262C278.312 230.729 278.406 231.139 278.592 231.494C278.788 231.839 279.045 232.11 279.362 232.306C279.689 232.502 280.048 232.6 280.44 232.6C280.832 232.6 281.187 232.502 281.504 232.306C281.831 232.11 282.088 231.839 282.274 231.494C282.47 231.139 282.568 230.729 282.568 230.262ZM286.699 234C286.456 234 286.255 233.921 286.097 233.762C285.938 233.594 285.859 233.389 285.859 233.146V224.494C285.859 224.251 285.938 224.051 286.097 223.892C286.255 223.724 286.456 223.64 286.699 223.64C286.941 223.64 287.142 223.724 287.301 223.892C287.459 224.051 287.539 224.251 287.539 224.494V233.146C287.539 233.389 287.459 233.594 287.301 233.762C287.142 233.921 286.941 234 286.699 234ZM291.151 226.51C291.365 226.51 291.552 226.599 291.711 226.776C291.869 226.953 291.949 227.126 291.949 227.294C291.949 227.518 291.837 227.728 291.613 227.924L287.399 231.802L287.329 229.87L290.535 226.776C290.712 226.599 290.917 226.51 291.151 226.51ZM291.361 233.986C291.118 233.986 290.913 233.893 290.745 233.706L288.155 230.962L289.429 229.786L291.949 232.53C292.126 232.717 292.215 232.927 292.215 233.16C292.215 233.403 292.117 233.603 291.921 233.762C291.734 233.911 291.547 233.986 291.361 233.986ZM303.745 226.37C303.988 226.37 304.188 226.449 304.347 226.608C304.506 226.767 304.585 226.972 304.585 227.224V233.146C304.585 233.389 304.506 233.594 304.347 233.762C304.188 233.921 303.988 234 303.745 234C303.502 234 303.302 233.921 303.143 233.762C302.984 233.594 302.905 233.389 302.905 233.146V232.46L303.213 232.586C303.213 232.707 303.148 232.857 303.017 233.034C302.886 233.202 302.709 233.37 302.485 233.538C302.261 233.706 301.995 233.851 301.687 233.972C301.388 234.084 301.062 234.14 300.707 234.14C300.063 234.14 299.48 233.977 298.957 233.65C298.434 233.314 298.019 232.857 297.711 232.278C297.412 231.69 297.263 231.018 297.263 230.262C297.263 229.497 297.412 228.825 297.711 228.246C298.019 227.658 298.43 227.201 298.943 226.874C299.456 226.538 300.026 226.37 300.651 226.37C301.052 226.37 301.421 226.431 301.757 226.552C302.093 226.673 302.382 226.827 302.625 227.014C302.877 227.201 303.068 227.392 303.199 227.588C303.339 227.775 303.409 227.933 303.409 228.064L302.905 228.246V227.224C302.905 226.981 302.984 226.781 303.143 226.622C303.302 226.454 303.502 226.37 303.745 226.37ZM300.917 232.6C301.328 232.6 301.687 232.497 301.995 232.292C302.303 232.087 302.541 231.807 302.709 231.452C302.886 231.097 302.975 230.701 302.975 230.262C302.975 229.814 302.886 229.413 302.709 229.058C302.541 228.703 302.303 228.423 301.995 228.218C301.687 228.013 301.328 227.91 300.917 227.91C300.516 227.91 300.161 228.013 299.853 228.218C299.545 228.423 299.302 228.703 299.125 229.058C298.957 229.413 298.873 229.814 298.873 230.262C298.873 230.701 298.957 231.097 299.125 231.452C299.302 231.807 299.545 232.087 299.853 232.292C300.161 232.497 300.516 232.6 300.917 232.6ZM310.408 226.37C311.099 226.37 311.621 226.515 311.976 226.804C312.34 227.093 312.587 227.481 312.718 227.966C312.858 228.442 312.928 228.974 312.928 229.562V233.146C312.928 233.389 312.849 233.594 312.69 233.762C312.531 233.921 312.331 234 312.088 234C311.845 234 311.645 233.921 311.486 233.762C311.327 233.594 311.248 233.389 311.248 233.146V229.562C311.248 229.254 311.206 228.979 311.122 228.736C311.047 228.484 310.907 228.283 310.702 228.134C310.497 227.985 310.203 227.91 309.82 227.91C309.447 227.91 309.129 227.985 308.868 228.134C308.616 228.283 308.42 228.484 308.28 228.736C308.149 228.979 308.084 229.254 308.084 229.562V233.146C308.084 233.389 308.005 233.594 307.846 233.762C307.687 233.921 307.487 234 307.244 234C307.001 234 306.801 233.921 306.642 233.762C306.483 233.594 306.404 233.389 306.404 233.146V227.364C306.404 227.121 306.483 226.921 306.642 226.762C306.801 226.594 307.001 226.51 307.244 226.51C307.487 226.51 307.687 226.594 307.846 226.762C308.005 226.921 308.084 227.121 308.084 227.364V227.966L307.874 227.924C307.958 227.765 308.079 227.597 308.238 227.42C308.397 227.233 308.583 227.061 308.798 226.902C309.013 226.743 309.255 226.617 309.526 226.524C309.797 226.421 310.091 226.37 310.408 226.37ZM320.876 223.64C321.119 223.64 321.319 223.719 321.478 223.878C321.637 224.037 321.716 224.242 321.716 224.494V233.146C321.716 233.389 321.637 233.594 321.478 233.762C321.319 233.921 321.119 234 320.876 234C320.633 234 320.433 233.921 320.274 233.762C320.115 233.594 320.036 233.389 320.036 233.146V232.46L320.344 232.586C320.344 232.707 320.279 232.857 320.148 233.034C320.017 233.202 319.84 233.37 319.616 233.538C319.392 233.706 319.126 233.851 318.818 233.972C318.519 234.084 318.193 234.14 317.838 234.14C317.194 234.14 316.611 233.977 316.088 233.65C315.565 233.314 315.15 232.857 314.842 232.278C314.543 231.69 314.394 231.018 314.394 230.262C314.394 229.497 314.543 228.825 314.842 228.246C315.15 227.658 315.561 227.201 316.074 226.874C316.587 226.538 317.157 226.37 317.782 226.37C318.183 226.37 318.552 226.431 318.888 226.552C319.224 226.673 319.513 226.827 319.756 227.014C320.008 227.201 320.199 227.392 320.33 227.588C320.47 227.775 320.54 227.933 320.54 228.064L320.036 228.246V224.494C320.036 224.251 320.115 224.051 320.274 223.892C320.433 223.724 320.633 223.64 320.876 223.64ZM318.048 232.6C318.459 232.6 318.818 232.497 319.126 232.292C319.434 232.087 319.672 231.807 319.84 231.452C320.017 231.097 320.106 230.701 320.106 230.262C320.106 229.814 320.017 229.413 319.84 229.058C319.672 228.703 319.434 228.423 319.126 228.218C318.818 228.013 318.459 227.91 318.048 227.91C317.647 227.91 317.292 228.013 316.984 228.218C316.676 228.423 316.433 228.703 316.256 229.058C316.088 229.413 316.004 229.814 316.004 230.262C316.004 230.701 316.088 231.097 316.256 231.452C316.433 231.807 316.676 232.087 316.984 232.292C317.292 232.497 317.647 232.6 318.048 232.6ZM331.309 223.64C331.514 223.64 331.715 223.668 331.911 223.724C332.107 223.78 332.27 223.873 332.401 224.004C332.531 224.125 332.597 224.289 332.597 224.494C332.597 224.727 332.527 224.914 332.387 225.054C332.256 225.185 332.102 225.25 331.925 225.25C331.841 225.25 331.715 225.231 331.547 225.194C331.379 225.147 331.215 225.124 331.057 225.124C330.823 225.124 330.641 225.175 330.511 225.278C330.389 225.381 330.305 225.502 330.259 225.642C330.212 225.773 330.189 225.889 330.189 225.992V233.146C330.189 233.389 330.109 233.594 329.951 233.762C329.792 233.921 329.591 234 329.349 234C329.106 234 328.905 233.921 328.747 233.762C328.588 233.594 328.509 233.389 328.509 233.146V226.006C328.509 225.343 328.742 224.783 329.209 224.326C329.675 223.869 330.375 223.64 331.309 223.64ZM331.463 226.65C331.687 226.65 331.873 226.725 332.023 226.874C332.172 227.014 332.247 227.196 332.247 227.42C332.247 227.644 332.172 227.831 332.023 227.98C331.873 228.12 331.687 228.19 331.463 228.19H327.753C327.529 228.19 327.342 228.12 327.193 227.98C327.043 227.831 326.969 227.644 326.969 227.42C326.969 227.196 327.043 227.014 327.193 226.874C327.342 226.725 327.529 226.65 327.753 226.65H331.463ZM336.674 234.14C335.881 234.14 335.19 233.977 334.602 233.65C334.024 233.314 333.576 232.861 333.258 232.292C332.95 231.723 332.796 231.079 332.796 230.36C332.796 229.52 332.964 228.806 333.3 228.218C333.646 227.621 334.094 227.163 334.644 226.846C335.195 226.529 335.778 226.37 336.394 226.37C336.87 226.37 337.318 226.468 337.738 226.664C338.168 226.86 338.546 227.131 338.872 227.476C339.199 227.812 339.456 228.204 339.642 228.652C339.838 229.1 339.936 229.576 339.936 230.08C339.927 230.304 339.838 230.486 339.67 230.626C339.502 230.766 339.306 230.836 339.082 230.836H333.734L333.314 229.436H338.452L338.144 229.716V229.338C338.126 229.067 338.028 228.825 337.85 228.61C337.682 228.395 337.468 228.227 337.206 228.106C336.954 227.975 336.684 227.91 336.394 227.91C336.114 227.91 335.853 227.947 335.61 228.022C335.368 228.097 335.158 228.223 334.98 228.4C334.803 228.577 334.663 228.815 334.56 229.114C334.458 229.413 334.406 229.791 334.406 230.248C334.406 230.752 334.509 231.181 334.714 231.536C334.929 231.881 335.2 232.147 335.526 232.334C335.862 232.511 336.217 232.6 336.59 232.6C336.936 232.6 337.211 232.572 337.416 232.516C337.622 232.46 337.785 232.395 337.906 232.32C338.037 232.236 338.154 232.166 338.256 232.11C338.424 232.026 338.583 231.984 338.732 231.984C338.938 231.984 339.106 232.054 339.236 232.194C339.376 232.334 339.446 232.497 339.446 232.684C339.446 232.936 339.316 233.165 339.054 233.37C338.812 233.575 338.471 233.757 338.032 233.916C337.594 234.065 337.141 234.14 336.674 234.14ZM344.932 234.14C344.139 234.14 343.448 233.977 342.86 233.65C342.281 233.314 341.833 232.861 341.516 232.292C341.208 231.723 341.054 231.079 341.054 230.36C341.054 229.52 341.222 228.806 341.558 228.218C341.903 227.621 342.351 227.163 342.902 226.846C343.453 226.529 344.036 226.37 344.652 226.37C345.128 226.37 345.576 226.468 345.996 226.664C346.425 226.86 346.803 227.131 347.13 227.476C347.457 227.812 347.713 228.204 347.9 228.652C348.096 229.1 348.194 229.576 348.194 230.08C348.185 230.304 348.096 230.486 347.928 230.626C347.76 230.766 347.564 230.836 347.34 230.836H341.992L341.572 229.436H346.71L346.402 229.716V229.338C346.383 229.067 346.285 228.825 346.108 228.61C345.94 228.395 345.725 228.227 345.464 228.106C345.212 227.975 344.941 227.91 344.652 227.91C344.372 227.91 344.111 227.947 343.868 228.022C343.625 228.097 343.415 228.223 343.238 228.4C343.061 228.577 342.921 228.815 342.818 229.114C342.715 229.413 342.664 229.791 342.664 230.248C342.664 230.752 342.767 231.181 342.972 231.536C343.187 231.881 343.457 232.147 343.784 232.334C344.12 232.511 344.475 232.6 344.848 232.6C345.193 232.6 345.469 232.572 345.674 232.516C345.879 232.46 346.043 232.395 346.164 232.32C346.295 232.236 346.411 232.166 346.514 232.11C346.682 232.026 346.841 231.984 346.99 231.984C347.195 231.984 347.363 232.054 347.494 232.194C347.634 232.334 347.704 232.497 347.704 232.684C347.704 232.936 347.573 233.165 347.312 233.37C347.069 233.575 346.729 233.757 346.29 233.916C345.851 234.065 345.399 234.14 344.932 234.14ZM351.482 233.146C351.482 233.389 351.398 233.594 351.23 233.762C351.071 233.921 350.871 234 350.628 234C350.395 234 350.199 233.921 350.04 233.762C349.881 233.594 349.802 233.389 349.802 233.146V224.494C349.802 224.251 349.881 224.051 350.04 223.892C350.208 223.724 350.413 223.64 350.656 223.64C350.899 223.64 351.095 223.724 351.244 223.892C351.403 224.051 351.482 224.251 351.482 224.494V233.146Z" fill="#333333"/>
</g>
<defs>
<clipPath id="clip0_713_451">
<rect width="353" height="238" fill="white"/>
</clipPath>
</defs>
</svg>
